<?xml version="1.0" encoding="UTF-8"?>
<svg version="1.1" xmlns="http://www.w3.org/2000/svg" width="1408" height="736">
<path d="M0 0 C1.72075477 1.61076335 3.39712225 3.27189743 5 5 C5.825 5.845625 6.65 6.69125 7.5 7.5625 C14.29638404 15.98830103 15.9631446 26.5385933 17 37 C17.79921875 37.02578125 18.5984375 37.0515625 19.421875 37.078125 C33.65803865 37.81332594 46.64493499 42.05233216 56.75 52.5625 C62.9647455 60.25979925 67.76049324 70.15685806 69 80 C69.10828125 80.84046875 69.2165625 81.6809375 69.328125 82.546875 C69.58158794 84.69463991 69.79495931 86.84707271 70 89 C70.98097656 89.268125 71.96195313 89.53625 72.97265625 89.8125 C100.60466703 97.69502913 120.1785024 114.50019617 134.7890625 139 C143.58528323 155.23917674 145.66112439 174.4053234 148.5 192.375 C148.81200908 194.31319629 149.12403352 196.25139027 149.43702984 198.18942738 C152.17577572 215.15508915 154.80499591 232.13808508 157.43359375 249.12109375 C157.65186514 250.53129162 157.65186514 250.53129162 157.87454605 251.96997833 C159.32560943 261.3486871 160.77307365 270.72792589 162.20715237 280.10924816 C162.74710262 283.63986172 163.28893473 287.17018536 163.83091927 290.70048714 C164.08151118 292.33653726 164.33114195 293.97273497 164.57967949 295.60909843 C165.99656469 304.93776436 167.55520196 314.21022774 169.39932251 323.46482849 C170.35084184 329.06481196 170.49184148 334.5810795 170.4375 340.25 C170.42847656 341.40894775 170.41945313 342.56789551 170.41015625 343.76196289 C169.82143495 373.39222426 158.16282428 400.43358721 138 422 C137.47301514 422.56501221 136.94603027 423.13002441 136.40307617 423.7121582 C132.15322134 428.1220418 127.59091573 431.70698542 122.5625 435.1875 C121.85029297 435.69474609 121.13808594 436.20199219 120.40429688 436.72460938 C108.58691026 445 108.58691026 445 104 445 C104.66 450.94 105.32 456.88 106 463 C107.65 463.33 109.3 463.66 111 464 C116.25109318 467.4978212 120.87404868 471.67853742 122.62890625 477.875 C123.93465415 485.35212481 123.33619306 491.01147831 119.6328125 497.73046875 C116.39288751 502.23380946 112.24077977 505.25307341 107 507 C105.54547417 507.09378735 104.08704785 507.13264347 102.62950802 507.13701439 C101.7309858 507.14208893 100.83246359 507.14716347 99.90671343 507.15239179 C98.91840849 507.15288955 97.93010355 507.15338731 96.91184998 507.15390015 C95.86278585 507.1582824 94.81372172 507.16266465 93.73286778 507.1671797 C90.2000839 507.18058732 86.66732498 507.18675102 83.13452148 507.19287109 C80.60846341 507.20077058 78.08240646 507.20903944 75.55635071 507.21765137 C67.96238652 507.24162557 60.36842355 507.25680315 52.77443346 507.26971143 C50.62890389 507.27342399 48.48337497 507.27739718 46.33784604 507.2814641 C33.01012361 507.30670411 19.68240014 507.32875402 6.35465908 507.34119225 C3.26760797 507.34412188 0.18055689 507.34708355 -2.90649414 507.35009766 C-3.67375314 507.35084371 -4.44101215 507.35158976 -5.23152142 507.35235842 C-17.65330901 507.36500485 -30.07495322 507.39821824 -42.49667383 507.43989949 C-55.25465805 507.48235744 -68.01256896 507.50589183 -80.77062362 507.51111281 C-87.93179598 507.51452285 -95.09274441 507.52622942 -102.25384712 507.55921555 C-108.9934333 507.59020931 -115.73256161 507.5956113 -122.47223091 507.58383179 C-124.9433233 507.58361096 -127.41443373 507.59192311 -129.88546371 507.60948563 C-133.26509871 507.63219455 -136.64332142 507.62387253 -140.02296448 507.60800171 C-140.99565436 507.6218838 -141.96834425 507.63576588 -142.97050959 507.65006864 C-150.42163854 507.56414486 -157.17297482 505.61203811 -162.71273619 500.38347852 C-166.653159 495.76589887 -167.66679401 489.92081417 -168 484 C-167.5373246 478.5895305 -165.51447358 473.1667443 -162 469 C-158.55954657 466.27707429 -154.92389823 463.96194912 -151 462 C-150.52402634 459.29400158 -150.15906371 456.66404596 -149.875 453.9375 C-149.74544922 452.79958008 -149.74544922 452.79958008 -149.61328125 451.63867188 C-149.40060483 449.76003014 -149.19924541 447.88011364 -149 446 C-150.08474609 445.58041016 -150.08474609 445.58041016 -151.19140625 445.15234375 C-176.7233935 434.67677179 -197.40169733 411.62024806 -207.94921875 386.484375 C-221.41647224 352.72071651 -215.0692476 319.11446981 -209.52318954 284.3001976 C-208.64231158 278.74375751 -207.78405362 273.18382236 -206.9230957 267.62426758 C-205.11640716 255.98504387 -203.27942418 244.35075913 -201.43146515 232.71802521 C-200.79790146 228.72687533 -200.16730747 224.73525769 -199.53662109 220.74365234 C-197.72875847 209.31141499 -195.90302744 197.88239842 -194.03045654 186.46057129 C-193.26324518 181.74555964 -192.57780539 177.02636068 -191.93359375 172.29296875 C-191.22917683 167.2838224 -190.3403913 162.46678637 -188.875 157.625 C-188.66399658 156.92294434 -188.45299316 156.22088867 -188.2355957 155.49755859 C-184.32268011 143.15332363 -178.1230512 132.06731091 -170 122 C-169.43667969 121.28457031 -168.87335937 120.56914062 -168.29296875 119.83203125 C-156.20976955 105.20202191 -136.10929262 92.14765996 -117 90 C-116.97421875 89.04480469 -116.9484375 88.08960938 -116.921875 87.10546875 C-116.31443773 73.25866007 -112.89037766 60.78428855 -102.67578125 50.70703125 C-92.36344662 42.07834309 -81.82758989 38.05775671 -68.4765625 37.24609375 C-66.058756 37.26999639 -66.058756 37.26999639 -65 36 C-64.75124439 33.73122896 -64.52660754 31.45980265 -64.3125 29.1875 C-63.12612096 18.97389935 -58.98069567 8.81083466 -51 2 C-34.45733188 -10.216469 -17.32326968 -11.11139015 0 0 Z M-31 28 C-31.63443694 30.70302123 -31.81703246 33.20974508 -32 36 C-27.31351505 38.57000788 -23.06960261 38.03696417 -18 37 C-17.67 36.67 -17.34 36.34 -17 36 C-17.257054 30.74912569 -17.257054 30.74912569 -19.1875 26 C-23.44511424 23.65097145 -27.89683759 24.32217789 -31 28 Z " fill="#7F4C33" transform="translate(740,107)"/>
<path d="M0 0 C0.98896151 -0.00657338 0.98896151 -0.00657338 1.99790204 -0.01327956 C4.1999492 -0.02659868 6.4019564 -0.03283096 8.60403442 -0.03897095 C10.18632688 -0.0468777 11.76861756 -0.055147 13.35090637 -0.06375122 C18.54350069 -0.08991717 23.73610282 -0.10527899 28.92874146 -0.11953735 C30.72167083 -0.12490031 32.51460016 -0.13027782 34.30752945 -0.13566971 C41.77258291 -0.1572954 49.23763427 -0.17602717 56.70271111 -0.1872921 C67.36951429 -0.2034984 78.03595135 -0.23659878 88.70261657 -0.29369295 C96.21881309 -0.33253854 103.73491232 -0.35194232 111.25120652 -0.35721266 C115.73146918 -0.36084775 120.21134087 -0.37267 124.69149399 -0.4053154 C128.91549817 -0.43565254 133.13888012 -0.44161788 137.36297035 -0.42993164 C138.90152763 -0.42971299 140.44011596 -0.43784208 141.97857094 -0.45558548 C157.92559463 -0.62928412 171.55676059 3.06460435 183.48733521 14.1812439 C192.01076408 23.05780918 195.97639847 33.45869149 197.87405396 45.4390564 C198.07256958 46.59567276 198.27108521 47.75228912 198.47561646 48.94395447 C199.10922907 52.6773717 199.71279953 56.41474597 200.31155396 60.15390015 C200.72679469 62.68761185 201.14216016 65.22130312 201.55764771 67.75497437 C202.73494271 75.00800522 203.87028553 82.26718333 204.99238205 89.52890015 C205.31688737 91.62586484 205.64308992 93.72255916 205.9697876 95.81918335 C208.73780832 113.58893687 211.45258725 131.36451491 213.77835083 149.19857788 C215.11800274 159.33330728 216.90972111 169.33112486 218.96707153 179.34432983 C223.08857459 199.65866801 220.07260509 219.43857289 209.31155396 237.15390015 C199.49337403 251.33368789 184.51261628 262.8054544 167.31155396 266.15390015 C162.85525288 266.4500862 158.5136649 266.26371577 154.06155396 265.96640015 C152.91686646 265.94126343 151.77217896 265.91612671 150.59280396 265.89022827 C142.40438071 265.36178933 142.40438071 265.36178933 139.30813599 261.93954468 C137.74124146 259.2749939 137.74124146 259.2749939 136.52981567 256.64389038 C132.60802521 248.6281908 123.22298904 244.3003909 115.31155396 241.15390015 C107.57348596 238.56589559 100.52073141 237.71816876 92.38967896 237.7906189 C90.73509674 237.78987114 90.73509674 237.78987114 89.04708862 237.78910828 C86.72767321 237.79143404 84.40825456 237.80107318 82.08889771 237.81771851 C78.58475532 237.84124438 75.08138007 237.83827499 71.57717896 237.83163452 C42.04610051 237.8374347 42.04610051 237.8374347 17.37796021 252.97421265 C14.08672421 256.44587557 11.83992535 259.56878595 10.31155396 264.15390015 C5.07210834 264.4799101 -0.16739825 264.77529273 -5.41061401 265.03378296 C-7.30781645 265.13382836 -9.20353696 265.26150111 -11.09860229 265.39608765 C-25.00291361 266.03235492 -36.44578436 258.87820858 -46.68844604 250.15390015 C-56.866703 240.64306987 -63.65410261 229.45304234 -67.68844604 216.15390015 C-67.91403198 215.45265015 -68.13961792 214.75140015 -68.37203979 214.02890015 C-71.63721141 202.13917179 -69.66368157 189.61402327 -67.60641479 177.70858765 C-66.46938212 171.04864922 -65.62168991 164.35291391 -64.75094604 157.65390015 C-63.42510047 147.5598299 -62.04643141 137.47616316 -60.56344604 127.40390015 C-60.32573486 125.77291382 -60.32573486 125.77291382 -60.08322144 124.10897827 C-59.39395627 119.47480073 -58.65737905 114.87578487 -57.69235229 110.2906189 C-56.35694791 103.81675442 -55.58690054 97.26990131 -54.75094604 90.71640015 C-53.59042695 81.7859856 -52.4037388 72.86256973 -51.00094604 63.96640015 C-50.88178833 63.20206665 -50.76263062 62.43773315 -50.63986206 61.65023804 C-50.16713926 58.71184771 -49.63163096 55.98345489 -48.68844604 53.15390015 C-48.39990174 50.82269073 -48.1319357 48.48890859 -47.87594604 46.15390015 C-46.19454985 32.76065426 -41.02201336 19.59720881 -30.26657104 10.8531189 C-20.77606304 4.59801135 -11.48609568 0.05433612 0 0 Z " fill="#FBD974" transform="translate(641.6884460449219,246.84609985351563)"/>
<path d="M0 0 C1.03584744 -0.00657338 1.03584744 -0.00657338 2.09262109 -0.01327956 C4.40055642 -0.02660542 6.70845363 -0.03283255 9.01641846 -0.03897095 C10.67428253 -0.04687729 12.3321449 -0.05514657 13.99000549 -0.06375122 C19.43271248 -0.08992617 24.87542695 -0.10528183 30.31817627 -0.11953735 C32.19773615 -0.1249003 34.07729598 -0.13027782 35.95685577 -0.13566971 C43.78391225 -0.15729845 51.61096672 -0.1760293 59.4380455 -0.1872921 C70.61932169 -0.20349135 81.8002482 -0.23657101 92.98139262 -0.29369295 C100.86109934 -0.33256056 108.74071322 -0.35194501 116.6205132 -0.35721266 C121.31657274 -0.36084531 126.01225897 -0.3726408 130.70821381 -0.4053154 C135.13740981 -0.43569078 139.56601243 -0.44160457 143.99529076 -0.42993164 C145.60718451 -0.42971329 147.21910818 -0.43781639 148.83090401 -0.45558548 C172.12134985 -0.69804017 192.43620679 8.13070769 210.02130127 23.15390015 C210.69548096 23.7262439 211.36966064 24.29858765 212.06427002 24.88827515 C227.01686936 38.71173083 235.17520594 58.96430924 237.43463135 78.77865601 C238.02258055 83.47850877 238.93715563 88.09640391 239.86114502 92.73983765 C242.06026488 104.04399187 243.85214376 115.39526955 245.58380127 126.77890015 C245.87706688 128.69041285 246.17068622 130.60187132 246.46466064 132.51327515 C247.04423337 136.2834791 247.62340038 140.0537449 248.20220947 143.82406616 C248.34075348 144.72553375 248.47929749 145.62700134 248.62203979 146.55578613 C248.87481191 148.20065003 249.1272723 149.84556189 249.37930298 151.49053955 C250.77398778 160.56800211 252.26612332 169.62461955 253.83695984 178.67337036 C254.62854088 183.25014736 255.40639331 187.82918927 256.1788702 192.40922165 C256.7445286 195.75687719 257.31892233 199.10253404 257.91363525 202.44515991 C262.12823028 226.20051908 266.50480056 252.89014277 258.02130127 276.15390015 C257.69984131 277.08081665 257.69984131 277.08081665 257.37188721 278.02645874 C248.94369696 302.15169327 233.55291755 321.41576189 212.02130127 335.15390015 C211.28266846 335.64245483 210.54403564 336.13100952 209.78302002 336.6343689 C205.70909764 339.19038443 205.70909764 339.19038443 203.03302002 339.0484314 C200.14110081 337.76251004 199.42633192 335.9573847 197.89630127 333.21640015 C194.07632915 326.87740085 188.80826422 319.54738162 182.02130127 316.15390015 C182.02130127 315.49390015 182.02130127 314.83390015 182.02130127 314.15390015 C183.07704346 313.78651733 183.07704346 313.78651733 184.15411377 313.41171265 C203.68091288 306.01906024 217.57985721 291.94744507 226.17657471 273.06893921 C237.68294083 246.98340861 231.06584147 218.0865605 225.73223877 191.1031189 C224.6504536 185.36965748 223.97276934 179.57418202 223.21856689 173.7906189 C222.30514863 166.91868458 221.18262254 160.10192954 219.95880127 153.27890015 C218.83993735 147.03689871 217.80047156 140.83018983 217.08380127 134.52890015 C216.04515999 125.53669955 214.41670511 116.65251793 212.84014893 107.74130249 C211.72319378 101.38649838 210.6991027 95.0631765 209.95880127 88.65390015 C207.83748343 71.91689701 200.96112359 56.69595319 187.45489502 46.1499939 C177.41618236 39.38445683 166.3780861 35.04364148 154.23674011 35.01345825 C153.56714864 35.01048713 152.89755716 35.00751601 152.20767504 35.00445485 C149.97097711 34.99580516 147.73433294 34.99426275 145.49761963 34.99276733 C143.89075609 34.98813638 142.28389365 34.98311135 140.67703247 34.97772217 C136.3150921 34.96461966 131.9531671 34.95815697 127.59121013 34.95371151 C124.86218673 34.95077627 122.13316749 34.94667053 119.40414619 34.94220734 C110.8547559 34.92853575 102.30537517 34.91886841 93.75597471 34.91500545 C83.90792608 34.9105306 74.06001665 34.89300795 64.21201032 34.86400485 C56.58715374 34.84233387 48.96233616 34.83229822 41.33744913 34.83096433 C36.78976589 34.82991983 32.24221356 34.8240885 27.69456291 34.80614471 C23.41076111 34.78957096 19.1271873 34.78755328 14.84336472 34.79628372 C13.27937646 34.79704924 11.71537547 34.79277608 10.15141869 34.78282547 C-6.25737826 34.68462969 -21.87486873 37.68955915 -34.29901123 49.31015015 C-45.52756295 61.63544413 -50.40344143 73.61055109 -52.85369873 89.96640015 C-53.09755088 91.51493973 -53.34270439 93.06327485 -53.58905029 94.61141968 C-54.26039199 98.86121801 -54.91015054 103.11406003 -55.55499268 107.36795044 C-55.99775279 110.27918427 -56.44599674 113.18953043 -56.89569092 116.09970093 C-59.67792613 134.10507584 -62.42483834 152.11458176 -64.97869873 170.15390015 C-65.38794402 172.98836863 -65.80633155 175.82136099 -66.22869873 178.65390015 C-66.34511719 179.44957397 -66.46153564 180.2452478 -66.58148193 181.06503296 C-67.35669576 186.27967885 -68.19908267 191.47905581 -69.09687805 196.67376709 C-75.86726613 230.58046729 -75.86726613 230.58046729 -70.97869873 264.15390015 C-70.56490967 265.36046265 -70.15112061 266.56702515 -69.72479248 267.81015015 C-66.69207726 276.27324461 -62.75600632 283.19341701 -56.97869873 290.15390015 C-56.30065186 291.00597046 -55.62260498 291.85804077 -54.92401123 292.7359314 C-46.26848146 303.05598612 -35.60102546 309.62805687 -22.97869873 314.15390015 C-22.97869873 314.81390015 -22.97869873 315.47390015 -22.97869873 316.15390015 C-24.2943609 317.20404319 -25.65855121 318.19366414 -27.04119873 319.15390015 C-34.39589584 324.70461494 -38.52079521 332.26312082 -42.97869873 340.15390015 C-53.03913125 335.5213045 -61.78558596 330.76088043 -69.97869873 323.15390015 C-70.81787842 322.39464233 -71.65705811 321.63538452 -72.52166748 320.8531189 C-92.28626599 302.13037519 -103.90833589 275.31473011 -105.16229248 248.1812439 C-105.30762559 241.2320477 -104.85266661 234.91265791 -103.53582764 228.09042358 C-102.57540793 223.0282289 -101.81945423 217.93424232 -101.04119873 212.84140015 C-100.86790039 211.71202026 -100.69460205 210.58264038 -100.51605225 209.41903687 C-99.28282527 201.31464897 -98.14440765 193.20055512 -97.05316162 185.07601929 C-95.46427171 173.26990928 -93.87084052 161.46488707 -91.54119873 149.77890015 C-90.07002716 142.17018469 -89.04526555 134.52454662 -88.04119873 126.84140015 C-76.93657592 42.10531683 -76.93657592 42.10531683 -45.27166748 16.5406189 C-32.51669829 6.99270149 -15.99475015 0.07220758 0 0 Z " fill="#F8B568" transform="translate(637.9786987304688,203.84609985351563)"/>
<path d="M0 0 C6.21715966 5.22148791 11.13168376 11.17059115 14.09765625 18.76171875 C14.45601562 19.64730469 14.814375 20.53289062 15.18359375 21.4453125 C16.32725253 25.59474115 16.39053362 29.35612841 16.34765625 33.63671875 C16.35539063 34.40113281 16.363125 35.16554688 16.37109375 35.953125 C16.32557211 49.35924835 11.04230543 62.75564187 1.58203125 72.2890625 C-4.90542886 77.72152303 -13.7818579 77.89444586 -21.90234375 77.76171875 C-21.90234375 78.42171875 -21.90234375 79.08171875 -21.90234375 79.76171875 C-21.18046875 80.00921875 -20.45859375 80.25671875 -19.71484375 80.51171875 C-16.65521109 81.87155549 -14.43496995 83.59089629 -11.90234375 85.76171875 C-12.2376903 91.37038972 -14.57672445 94.13817213 -18.40234375 97.94921875 C-19.50260282 99.0886382 -20.60023024 100.23060428 -21.6953125 101.375 C-22.23978027 101.9417041 -22.78424805 102.5084082 -23.34521484 103.09228516 C-25.59686533 105.50633126 -27.65549214 108.05808332 -29.71484375 110.63671875 C-32.7030568 114.35717861 -35.78407551 117.77808575 -39.2265625 121.078125 C-41.061857 122.92197566 -42.68469791 124.88036815 -44.33984375 126.88671875 C-49.88940453 133.14060015 -54.11267757 135.84787873 -62.52978516 136.45336914 C-65.98857052 136.62954724 -69.43926778 136.7184303 -72.90234375 136.76171875 C-68.44734375 140.22671875 -68.44734375 140.22671875 -63.90234375 143.76171875 C-64.90269996 148.7634998 -65.51608613 150.02407064 -69.35546875 153.078125 C-72.69940205 155.28860851 -76.15298837 157.17727786 -79.71484375 159.01171875 C-80.36590088 159.35307861 -81.01695801 159.69443848 -81.68774414 160.04614258 C-89.87108392 164.09300397 -97.38839961 164.93299812 -106.40234375 164.5 C-107.16918991 164.46798492 -107.93603607 164.43596985 -108.72612 164.40298462 C-115.17458964 164.12949215 -115.17458964 164.12949215 -118.31640625 163.89086914 C-127.36525691 162.97439276 -127.36525691 162.97439276 -135.59579468 165.98757935 C-139.07072151 169.47656147 -141.45352327 173.5193304 -143.90234375 177.76171875 C-145.1551965 179.54531849 -146.42218692 181.31925254 -147.71484375 183.07421875 C-148.21628906 183.79222656 -148.71773437 184.51023437 -149.234375 185.25 C-150.90234375 186.76171875 -150.90234375 186.76171875 -153.4765625 187.1171875 C-155.90234375 186.76171875 -155.90234375 186.76171875 -157.90234375 184.76171875 C-158.51522977 182.04110277 -158.26368063 180.37708132 -156.85009766 177.96972656 C-155.36161533 175.89178234 -153.80816139 173.88537041 -152.21484375 171.88671875 C-150.62157511 169.83850706 -149.03045702 167.78872671 -147.44384766 165.73535156 C-146.43451675 164.4430755 -145.40601327 163.1654949 -144.35693359 161.90527344 C-142.19881145 159.18951821 -140.89548449 157.47018211 -140.9296875 153.9375 C-141.41115234 152.36548828 -141.41115234 152.36548828 -141.90234375 150.76171875 C-142.30508649 149.235844 -142.70164029 147.7083292 -143.09375 146.1796875 C-143.31675781 145.33833252 -143.53976562 144.49697754 -143.76953125 143.63012695 C-148.8400406 124.07982389 -148.23645112 108.5520808 -137.90234375 90.76171875 C-136.30316656 88.45965837 -135.24845852 87.38595205 -132.90234375 85.76171875 C-129.2396477 85.57388818 -127.31409607 87.09237823 -124.58984375 89.32421875 C-123.70296875 90.12859375 -122.81609375 90.93296875 -121.90234375 91.76171875 C-122.23234375 90.77171875 -122.56234375 89.78171875 -122.90234375 88.76171875 C-123.79539179 81.24906723 -124.24222138 74.5756326 -119.65234375 68.19921875 C-118.10438728 66.35641343 -116.51740725 64.54600308 -114.90234375 62.76171875 C-113.95940154 61.65455439 -113.02078741 60.54369315 -112.0859375 59.4296875 C-110.07532013 57.04379909 -108.04569546 54.67670139 -105.99609375 52.32421875 C-102.99181318 48.87458 -100.03633077 45.3857361 -97.08984375 41.88671875 C-93.07871444 37.13270827 -89.02520396 32.41928438 -84.90234375 27.76171875 C-81.24173554 28.34708628 -79.35699211 29.84495775 -76.65234375 32.32421875 C-75.59273437 33.28521484 -75.59273437 33.28521484 -74.51171875 34.265625 C-73.71507812 35.00619141 -73.71507812 35.00619141 -72.90234375 35.76171875 C-72.88816406 34.48296875 -72.87398437 33.20421875 -72.859375 31.88671875 C-72.81244181 30.17835079 -72.76419463 28.47001858 -72.71484375 26.76171875 C-72.70614258 25.50294922 -72.70614258 25.50294922 -72.69726562 24.21875 C-72.43256574 16.63068664 -69.82182723 12.03374363 -64.83203125 6.44140625 C-46.61395056 -9.56002584 -20.74517486 -14.94706791 0 0 Z " fill="#FBB234" transform="translate(788.90234375,289.23828125)"/>
<path d="M0 0 C1.03584744 -0.00657338 1.03584744 -0.00657338 2.09262109 -0.01327956 C4.40055642 -0.02660542 6.70845363 -0.03283255 9.01641846 -0.03897095 C10.67428253 -0.04687729 12.3321449 -0.05514657 13.99000549 -0.06375122 C19.43271248 -0.08992617 24.87542695 -0.10528183 30.31817627 -0.11953735 C32.19773615 -0.1249003 34.07729598 -0.13027782 35.95685577 -0.13566971 C43.78391225 -0.15729845 51.61096672 -0.1760293 59.4380455 -0.1872921 C70.61932169 -0.20349135 81.8002482 -0.23657101 92.98139262 -0.29369295 C100.86109934 -0.33256056 108.74071322 -0.35194501 116.6205132 -0.35721266 C121.31657274 -0.36084531 126.01225897 -0.3726408 130.70821381 -0.4053154 C135.13740981 -0.43569078 139.56601243 -0.44160457 143.99529076 -0.42993164 C145.60718451 -0.42971329 147.21910818 -0.43781639 148.83090401 -0.45558548 C172.12134985 -0.69804017 192.43620679 8.13070769 210.02130127 23.15390015 C210.69548096 23.7262439 211.36966064 24.29858765 212.06427002 24.88827515 C227.01686936 38.71173083 235.17520594 58.96430924 237.43463135 78.77865601 C238.02258055 83.47850877 238.93715563 88.09640391 239.86114502 92.73983765 C242.06026488 104.04399187 243.85214376 115.39526955 245.58380127 126.77890015 C245.87706688 128.69041285 246.17068622 130.60187132 246.46466064 132.51327515 C247.04423337 136.2834791 247.62340038 140.0537449 248.20220947 143.82406616 C248.34075348 144.72553375 248.47929749 145.62700134 248.62203979 146.55578613 C248.87481191 148.20065003 249.1272723 149.84556189 249.37930298 151.49053955 C250.77398778 160.56800211 252.26612332 169.62461955 253.83695984 178.67337036 C254.62854088 183.25014736 255.40639331 187.82918927 256.1788702 192.40922165 C256.7445286 195.75687719 257.31892233 199.10253404 257.91363525 202.44515991 C262.12823028 226.20051908 266.50480056 252.89014277 258.02130127 276.15390015 C257.69984131 277.08081665 257.69984131 277.08081665 257.37188721 278.02645874 C248.94369696 302.15169327 233.55291755 321.41576189 212.02130127 335.15390015 C211.28266846 335.64245483 210.54403564 336.13100952 209.78302002 336.6343689 C205.72464902 339.18062736 205.72464902 339.18062736 203.06817627 339.0796814 C200.01412708 337.69836526 199.03631265 335.55638117 197.33380127 332.71640015 C196.73180908 331.72768921 196.12981689 330.73897827 195.50958252 329.7203064 C194.63998226 328.2207595 193.79652324 326.70434409 193.02130127 325.15390015 C193.84372314 324.66921265 194.66614502 324.18452515 195.51348877 323.68515015 C219.93030059 309.02378508 235.90679823 289.74928875 244.02130127 262.15390015 C248.59495197 243.28338546 245.38741112 224.58389922 242.26582336 205.73544312 C241.16374955 199.07783083 240.11742774 192.41230073 239.08380127 185.7437439 C236.03198123 166.07899226 232.94233434 146.42394547 229.60772705 126.80502319 C228.25141808 118.75186569 227.10519134 110.68510675 226.04351807 102.58847046 C224.99704611 94.70897668 223.62406564 86.93996077 222.02130127 79.15390015 C221.68485596 77.44653687 221.68485596 77.44653687 221.34161377 75.7046814 C218.54254713 62.4169774 213.14993689 51.89329548 205.02130127 41.15390015 C204.44380127 40.38948608 203.86630127 39.62507202 203.27130127 38.8374939 C190.99534971 23.75813994 169.81138739 14.396558 150.77187347 12.36572075 C145.16680171 11.93407613 139.54939658 11.97036563 133.93048096 11.94515991 C132.52481872 11.93560137 131.11915872 11.9257094 129.71350098 11.91551208 C125.1234204 11.88434167 120.53332296 11.86387651 115.94317627 11.8453064 C115.15759118 11.84200907 114.37200609 11.83871175 113.56261539 11.83531451 C106.12911551 11.80453052 98.69561096 11.77787277 91.26206589 11.76089573 C81.81918692 11.73906221 72.37688149 11.69721473 62.93423152 11.62745816 C56.25947088 11.57985961 49.58486291 11.55591461 42.9099381 11.54869884 C38.94139637 11.54379445 34.97350352 11.529223 31.00514984 11.48895454 C3.30791936 11.22125254 -21.92517418 14.00106113 -42.97869873 34.15390015 C-44.96799283 36.52845791 -46.82301564 38.93235113 -48.60369873 41.46640015 C-49.05744873 42.02327515 -49.51119873 42.58015015 -49.97869873 43.15390015 C-50.63869873 43.15390015 -51.29869873 43.15390015 -51.97869873 43.15390015 C-52.24940186 43.87577515 -52.52010498 44.59765015 -52.79901123 45.34140015 C-53.9608247 48.11128656 -55.33179851 50.56745832 -56.85369873 53.15390015 C-62.9973011 64.37797752 -64.95628906 76.59973659 -66.85369873 89.09140015 C-67.10804443 90.71954621 -67.36327323 92.34755452 -67.61932373 93.97543335 C-68.14968865 97.35518193 -68.67491588 100.73567211 -69.19647217 104.11679077 C-69.94073281 108.92916763 -70.71025925 113.73721972 -71.48651123 118.54452515 C-74.33715206 136.24966265 -76.98474882 153.97562591 -79.48443604 171.73370361 C-80.95105255 182.14532419 -82.46687256 192.53739575 -84.22869873 202.90390015 C-84.38838135 203.85337524 -84.54806396 204.80285034 -84.71258545 205.78109741 C-85.3324418 209.44518908 -85.96864593 213.10129429 -86.66619873 216.7515564 C-89.62552659 233.66493716 -90.25967388 252.99752749 -83.97869873 269.15390015 C-83.73200439 269.80358765 -83.48531006 270.45327515 -83.23114014 271.12265015 C-73.65533204 295.95273817 -57.01865943 312.44924097 -33.97869873 325.15390015 C-34.46080811 325.9015564 -34.94291748 326.64921265 -35.43963623 327.41952515 C-36.07127686 328.4043689 -36.70291748 329.38921265 -37.35369873 330.40390015 C-37.98018311 331.3784314 -38.60666748 332.35296265 -39.25213623 333.35702515 C-40.63004725 335.5891163 -41.86182515 337.78477437 -42.97869873 340.15390015 C-53.03913125 335.5213045 -61.78558596 330.76088043 -69.97869873 323.15390015 C-70.81787842 322.39464233 -71.65705811 321.63538452 -72.52166748 320.8531189 C-92.28626599 302.13037519 -103.90833589 275.31473011 -105.16229248 248.1812439 C-105.30762559 241.2320477 -104.85266661 234.91265791 -103.53582764 228.09042358 C-102.57540793 223.0282289 -101.81945423 217.93424232 -101.04119873 212.84140015 C-100.86790039 211.71202026 -100.69460205 210.58264038 -100.51605225 209.41903687 C-99.28282527 201.31464897 -98.14440765 193.20055512 -97.05316162 185.07601929 C-95.46427171 173.26990928 -93.87084052 161.46488707 -91.54119873 149.77890015 C-90.07002716 142.17018469 -89.04526555 134.52454662 -88.04119873 126.84140015 C-76.93657592 42.10531683 -76.93657592 42.10531683 -45.27166748 16.5406189 C-32.51669829 6.99270149 -15.99475015 0.07220758 0 0 Z " fill="#E0945E" transform="translate(637.9786987304688,203.84609985351563)"/>
<path d="M0 0 C1.56819645 -0.00571234 3.13638874 -0.01267992 4.70457458 -0.02079773 C8.93818482 -0.03864992 13.17158689 -0.03757569 17.40522337 -0.03185534 C20.95117242 -0.02875164 24.49708217 -0.0348691 28.04302561 -0.04089409 C36.41462235 -0.05491194 44.78611697 -0.05340119 53.15771484 -0.04199219 C61.76811067 -0.03051639 70.37819482 -0.04458381 78.98854959 -0.07138866 C86.40546008 -0.09360596 93.82227317 -0.10016942 101.23921454 -0.09431225 C105.65829476 -0.09095553 110.07717531 -0.09327156 114.49622726 -0.11056328 C118.65460625 -0.12612668 122.81252665 -0.12197386 126.97088814 -0.10325813 C128.48810939 -0.09959793 130.00536534 -0.10260487 131.5225544 -0.11314392 C146.71534971 -0.21053993 158.82074518 3.11620012 169.96337891 13.65405273 C174.01729172 17.86844746 176.89570852 22.07433787 179.27587891 27.40405273 C179.59427734 28.08854492 179.91267578 28.77303711 180.24072266 29.47827148 C183.18962346 36.83013938 182.27587891 41.71338172 182.27587891 50.40405273 C104.72587891 50.40405273 27.17587891 50.40405273 -52.72412109 50.40405273 C-52.72412109 35.4678512 -50.32487719 24.21576986 -39.97412109 13.15405273 C-28.16461827 2.04054723 -15.67841369 -0.05186139 0 0 Z " fill="#F0A974" transform="translate(652.72412109375,519.595947265625)"/>
<path d="M0 0 C0.84240234 -0.00773437 1.68480469 -0.01546875 2.55273438 -0.0234375 C8.3319348 -0.00564166 13.46142609 0.82571077 19.0625 2.25 C19.0625 2.91 19.0625 3.57 19.0625 4.25 C20.320625 4.435625 21.57875 4.62125 22.875 4.8125 C32.98143531 7.09715728 41.65827333 14.32218714 48.0625 22.25 C50.0143211 25.48026393 51.55767613 28.79425823 53.0625 32.25 C53.619375 33.24 54.17625 34.23 54.75 35.25 C61.63434796 50.98565249 59.50014701 72.37612364 54.0625 88.25 C50.06613959 97.85072382 43.73409729 105.24912866 35.8125 111.875 C32.81238394 114.41579596 30.97492785 116.77350392 29.16796875 120.31640625 C26.68471626 124.65990443 23.23631124 128.40090977 20.0625 132.25 C19.33546875 133.15234375 18.6084375 134.0546875 17.859375 134.984375 C12.78777528 141.26180961 7.53305145 147.31817424 2.0625 153.25 C1.50755859 153.85537598 0.95261719 154.46075195 0.38085938 155.08447266 C-6.66949896 162.76365688 -13.75469813 170.18054746 -21.578125 177.078125 C-23.79025692 179.11445836 -25.74250846 181.21076217 -27.6875 183.5 C-35.046437 192.03978968 -42.57878978 195.58641737 -53.03027344 199.52636719 C-54.51185289 200.08850256 -55.98135936 200.68250248 -57.4453125 201.2890625 C-68.86597552 205.72296697 -81.58887815 205.62503225 -93.546875 204.1484375 C-97.74796839 204.2742767 -99.03143926 205.29295574 -101.9375 208.25 C-103.50608421 210.14308775 -103.50608421 210.14308775 -104.8125 212.125 C-109.0062114 217.899418 -114.12836661 222.79871198 -120.9375 225.25 C-127.39789333 226.22629078 -132.60957125 225.0423685 -137.9375 221.25 C-141.50505927 217.86353511 -144.53899905 213.93293081 -145.2734375 208.98828125 C-145.43328506 199.06174787 -141.4911899 191.59013269 -134.9375 184.25 C-134.2775 183.92 -133.6175 183.59 -132.9375 183.25 C-129.80205317 177.98692853 -129.77694373 174.83728772 -131.1875 168.95703125 C-131.68634224 167.15652254 -132.20715508 165.36195323 -132.75 163.57421875 C-137.67473426 146.45603187 -135.67220428 127.95816338 -127.109375 112.3125 C-126.72265625 111.631875 -126.3359375 110.95125 -125.9375 110.25 C-125.32557535 109.04557689 -124.72016633 107.83779176 -124.125 106.625 C-123.733125 105.84125 -123.34125 105.0575 -122.9375 104.25 C-122.2775 104.25 -121.6175 104.25 -120.9375 104.25 C-120.9375 103.59 -120.9375 102.93 -120.9375 102.25 C-120.2775 102.25 -119.6175 102.25 -118.9375 102.25 C-118.9375 101.59 -118.9375 100.93 -118.9375 100.25 C-117.546875 98.98828125 -117.546875 98.98828125 -115.6875 97.5625 C-111.92597845 94.44429702 -110.14925932 91.59725108 -107.9375 87.25 C-107.1944328 85.93356261 -106.44459119 84.6209224 -105.6875 83.3125 C-105.11 82.301875 -104.5325 81.29125 -103.9375 80.25 C-103.2775 80.25 -102.6175 80.25 -101.9375 80.25 C-101.9375 79.59 -101.9375 78.93 -101.9375 78.25 C-101.2775 78.25 -100.6175 78.25 -99.9375 78.25 C-99.73125 77.54875 -99.525 76.8475 -99.3125 76.125 C-97.75807694 72.87484269 -95.91755008 71.06813822 -93.27734375 68.6796875 C-91.68036991 67.1752405 -91.68036991 67.1752405 -90.9375 64.25 C-89.9475 63.92 -88.9575 63.59 -87.9375 63.25 C-86.72867904 61.24983534 -86.72867904 61.24983534 -85.9375 59.25 C-85.2775 59.25 -84.6175 59.25 -83.9375 59.25 C-83.669375 58.610625 -83.40125 57.97125 -83.125 57.3125 C-81.9375 55.25 -81.9375 55.25 -78.9375 54.25 C-78.23355388 52.93596724 -77.57404342 51.5979743 -76.9375 50.25 C-74.9375 47.5 -74.9375 47.5 -72.9375 45.25 C-72.2775 45.25 -71.6175 45.25 -70.9375 45.25 C-70.9375 44.26 -70.9375 43.27 -70.9375 42.25 C-69.125 40.0625 -69.125 40.0625 -66.9375 38.25 C-65.9475 38.25 -64.9575 38.25 -63.9375 38.25 C-63.4425 37.26 -63.4425 37.26 -62.9375 36.25 C-62.31875 35.97800781 -61.7 35.70601563 -61.0625 35.42578125 C-58.28436313 33.88861361 -57.46134621 32.19947126 -55.9375 29.4375 C-50.36614056 19.72621352 -50.36614056 19.72621352 -45.9375 18.25 C-45.380625 17.5075 -44.82375 16.765 -44.25 16 C-34.56515621 4.48288846 -14.41449287 -0.13173946 0 0 Z M-39.31640625 32.16015625 C-43.8261572 37.97393158 -44.43745028 43.00882779 -44.625 50.125 C-44.65916016 51.00414062 -44.69332031 51.88328125 -44.72851562 52.7890625 C-44.8104314 54.94227705 -44.87565579 57.09611551 -44.9375 59.25 C-45.54078125 58.66089844 -46.1440625 58.07179688 -46.765625 57.46484375 C-47.56484375 56.71332031 -48.3640625 55.96179688 -49.1875 55.1875 C-49.97640625 54.43339844 -50.7653125 53.67929687 -51.578125 52.90234375 C-53.7307442 51.07183581 -53.7307442 51.07183581 -55.9375 51.1953125 C-58.81183371 52.71107442 -60.54275703 54.75246539 -62.6875 57.1875 C-63.12795654 57.68475586 -63.56841309 58.18201172 -64.0222168 58.69433594 C-67.37200591 62.5091546 -70.53885955 66.45339091 -73.66796875 70.44921875 C-75.98664478 73.31064854 -78.39069332 76.07513136 -80.82617188 78.83691406 C-83.07660615 81.39744755 -85.29614715 83.9833176 -87.50634766 86.57861328 C-88.68994912 87.96089503 -89.89498139 89.32479442 -91.10546875 90.68359375 C-96.25080373 97.14887214 -95.68557227 104.35262947 -94.9375 112.25 C-94.6075 113.24 -94.2775 114.23 -93.9375 115.25 C-94.38480469 114.80527344 -94.83210937 114.36054688 -95.29296875 113.90234375 C-98.88118732 110.3994818 -98.88118732 110.3994818 -103.5 108.9375 C-111.24255983 113.10657068 -115.03874812 122.04175801 -117.50610352 130.10913086 C-121.17719101 143.64328355 -118.63578192 156.43005174 -115.12890625 169.66796875 C-114.9263623 170.46976563 -114.72381836 171.2715625 -114.51513672 172.09765625 C-113.92483156 174.41559335 -113.92483156 174.41559335 -112.85546875 177.26171875 C-112.99805114 182.45579147 -116.55934435 185.91916115 -119.6875 189.875 C-120.33460938 190.720625 -120.98171875 191.56625 -121.6484375 192.4375 C-122.85642864 194.01335676 -124.07149951 195.58383019 -125.29589844 197.14697266 C-126.10849121 198.18797119 -126.10849121 198.18797119 -126.9375 199.25 C-127.49598633 199.94528809 -128.05447266 200.64057617 -128.62988281 201.35693359 C-130.32836302 203.81586107 -130.32280437 205.32168677 -129.9375 208.25 C-128.11726059 210.45945541 -128.11726059 210.45945541 -125.546875 210.640625 C-122.83115695 210.48310482 -122.83115695 210.48310482 -121.015625 208.484375 C-120.41234375 207.66453125 -119.8090625 206.8446875 -119.1875 206 C-118.52387451 205.13044678 -117.86024902 204.26089355 -117.17651367 203.36499023 C-114.89545603 200.31888626 -114.89545603 200.31888626 -113.17993164 197.08325195 C-108.35149753 189.03710605 -108.35149753 189.03710605 -104.07476807 187.64263916 C-98.77114397 186.83328444 -93.44924146 187.29460881 -88.125 187.6875 C-84.97359077 187.85802872 -81.82148289 187.99593624 -78.66796875 188.12109375 C-77.90900299 188.15405548 -77.15003723 188.18701721 -76.36807251 188.22097778 C-62.78655694 188.64884264 -49.28539564 183.21689496 -39.0625 174.3125 C-38.00609501 173.30692621 -36.95765436 172.29233163 -35.9375 171.25 C-36.26806692 168.16995584 -36.52994032 166.6472199 -38.78515625 164.44921875 C-39.51605469 163.95035156 -40.24695313 163.45148438 -41 162.9375 C-41.73347656 162.42574219 -42.46695313 161.91398438 -43.22265625 161.38671875 C-44.07150391 160.82404297 -44.07150391 160.82404297 -44.9375 160.25 C-43.81472656 160.24742187 -42.69195313 160.24484375 -41.53515625 160.2421875 C-28.62846658 160.00849087 -22.77865964 157.33130638 -13.79101562 148.02319336 C-8.30759906 142.22270357 -3.13384565 136.20125063 1.82421875 129.9453125 C3.50746973 127.91836106 5.20140222 126.01603194 7.01953125 124.1171875 C7.52460205 123.58697998 8.02967285 123.05677246 8.55004883 122.51049805 C9.53011795 121.49119452 10.52032922 120.48150853 11.5222168 119.48364258 C14.67185685 116.20212805 15.74143341 113.7783767 16.0625 109.25 C12.86259492 106.50722422 10.05750618 104.6197164 6.0625 103.25 C6.0625 102.59 6.0625 101.93 6.0625 101.25 C6.99191406 101.21261719 7.92132812 101.17523438 8.87890625 101.13671875 C18.23217046 100.63930845 25.1355214 99.78870435 32.29296875 93.390625 C36.20206267 88.66174317 38.59252644 82.82210395 41.0625 77.25 C41.43761719 76.40566406 41.81273437 75.56132812 42.19921875 74.69140625 C45.86287403 64.3303902 45.77392041 49.68879835 41.38671875 39.63671875 C34.78293436 27.73432269 25.82595828 20.66250986 13.0625 16.25 C-5.8970507 10.89510409 -25.91048693 18.52359745 -39.31640625 32.16015625 Z " fill="#FBF7C2" transform="translate(760.9375,265.75)"/>
<path d="M0 0 C0.88705543 -0.00583219 1.77411086 -0.01166439 2.68804675 -0.01767331 C4.15125119 -0.01200433 4.15125119 -0.01200433 5.64401531 -0.00622082 C6.67956749 -0.01004636 7.71511967 -0.01387191 8.78205222 -0.01781338 C12.26894301 -0.02817227 15.75567001 -0.02414571 19.24257183 -0.02018261 C21.73571202 -0.02452753 24.22885087 -0.02970993 26.72198772 -0.03567028 C32.80164055 -0.04770037 38.88122846 -0.0502086 44.96088723 -0.04787002 C49.90260802 -0.04608844 54.8443154 -0.04783306 59.78603458 -0.05209446 C60.48883753 -0.05268965 61.19164048 -0.05328484 61.91574049 -0.05389806 C63.3434195 -0.0551098 64.77109851 -0.05632393 66.19877752 -0.05754044 C79.59585876 -0.06842352 92.99291484 -0.0662501 106.3899975 -0.06015559 C118.6463193 -0.05498811 130.90256157 -0.06623603 143.15886763 -0.08525381 C155.74055719 -0.1046269 168.32220911 -0.11288899 180.90391368 -0.10913056 C187.96875415 -0.1072174 195.03352697 -0.10971699 202.09835529 -0.1238451 C208.74263547 -0.1369975 215.3867827 -0.13450597 222.03107166 -0.12143421 C224.47157882 -0.11906259 226.91209709 -0.12182396 229.35259151 -0.13005733 C232.6807948 -0.14047687 236.00845866 -0.13246217 239.33664227 -0.11974621 C240.30541972 -0.12712049 241.27419718 -0.13449478 242.27233154 -0.14209253 C247.4970548 -0.10001733 251.16852606 0.31513303 255.68080425 3.25447559 C258.92112487 6.92683896 259.1421732 10.391107 258.96986675 15.10603809 C258.44215711 19.02820439 256.76313048 21.30222264 253.85217232 23.86334372 C251.37156731 25.45259464 250.10468735 25.63168556 247.18891525 25.63758564 C245.83874521 25.6511706 245.83874521 25.6511706 244.461299 25.66503 C243.47638725 25.65970208 242.49147551 25.65437415 241.47671795 25.64888477 C239.90267371 25.65802143 239.90267371 25.65802143 238.29683059 25.66734266 C234.76919524 25.68403477 231.2419184 25.6791879 227.71425152 25.67439747 C225.18978276 25.68173415 222.66531736 25.69031919 220.14085674 25.70006275 C213.9888025 25.72001473 207.8368809 25.72565708 201.68479867 25.72387487 C196.68492484 25.72256778 191.68508043 25.72636864 186.68521214 25.73379993 C185.24558558 25.7358991 183.80595903 25.7379967 182.36633247 25.74009275 C181.64981543 25.74113628 180.93329839 25.74217981 180.19506871 25.74325496 C166.641108 25.76216106 153.08720141 25.76110594 139.53323298 25.75428563 C127.13074917 25.74870926 114.72847188 25.76953886 102.32603634 25.8026461 C89.59401803 25.83636962 76.86209868 25.85155316 64.13003486 25.84692907 C56.98079546 25.8446831 49.83174695 25.84994615 42.68254566 25.87482166 C35.96098734 25.8980099 29.23992996 25.89526853 22.51834011 25.87489414 C20.0483832 25.87147188 17.57839766 25.87662507 15.1084795 25.89087772 C11.74243619 25.90896446 8.37787146 25.89639829 5.0118742 25.87593555 C4.02919317 25.8884534 3.04651215 25.90097125 2.03405291 25.91386843 C-2.61674634 25.85304758 -4.63466391 25.79643283 -8.38285637 22.8289156 C-11.59771148 18.55463822 -12.8341618 15.83962597 -12.70982075 10.28572559 C-12.00415898 6.61628443 -9.96013632 4.83399895 -7.31919575 2.25447559 C-4.2033426 0.17724017 -3.53323458 0.00399182 0 0 Z " fill="#CD8152" transform="translate(594.3191957473755,578.7455244064331)"/>
<path d="M0 0 C6.21715966 5.22148791 11.13168376 11.17059115 14.09765625 18.76171875 C14.45601562 19.64730469 14.814375 20.53289062 15.18359375 21.4453125 C16.32725253 25.59474115 16.39053362 29.35612841 16.34765625 33.63671875 C16.35539063 34.40113281 16.363125 35.16554688 16.37109375 35.953125 C16.32557211 49.35924835 11.04230543 62.75564187 1.58203125 72.2890625 C-4.90542886 77.72152303 -13.7818579 77.89444586 -21.90234375 77.76171875 C-21.90234375 78.42171875 -21.90234375 79.08171875 -21.90234375 79.76171875 C-21.18046875 80.00921875 -20.45859375 80.25671875 -19.71484375 80.51171875 C-16.65521109 81.87155549 -14.43496995 83.59089629 -11.90234375 85.76171875 C-12.2376903 91.37038972 -14.57672445 94.13817213 -18.40234375 97.94921875 C-19.50260282 99.0886382 -20.60023024 100.23060428 -21.6953125 101.375 C-22.23978027 101.9417041 -22.78424805 102.5084082 -23.34521484 103.09228516 C-25.59686533 105.50633126 -27.65549214 108.05808332 -29.71484375 110.63671875 C-32.7030568 114.35717861 -35.78407551 117.77808575 -39.2265625 121.078125 C-41.061857 122.92197566 -42.68469791 124.88036815 -44.33984375 126.88671875 C-49.88940453 133.14060015 -54.11267757 135.84787873 -62.52978516 136.45336914 C-65.98857052 136.62954724 -69.43926778 136.7184303 -72.90234375 136.76171875 C-68.44734375 140.22671875 -68.44734375 140.22671875 -63.90234375 143.76171875 C-64.90269996 148.7634998 -65.51608613 150.02407064 -69.35546875 153.078125 C-72.69940205 155.28860851 -76.15298837 157.17727786 -79.71484375 159.01171875 C-80.36590088 159.35307861 -81.01695801 159.69443848 -81.68774414 160.04614258 C-89.87108392 164.09300397 -97.38839961 164.93299812 -106.40234375 164.5 C-107.16918991 164.46798492 -107.93603607 164.43596985 -108.72612 164.40298462 C-115.17458964 164.12949215 -115.17458964 164.12949215 -118.31640625 163.89086914 C-127.36525691 162.97439276 -127.36525691 162.97439276 -135.59579468 165.98757935 C-139.07072151 169.47656147 -141.45352327 173.5193304 -143.90234375 177.76171875 C-145.1551965 179.54531849 -146.42218692 181.31925254 -147.71484375 183.07421875 C-148.21628906 183.79222656 -148.71773437 184.51023437 -149.234375 185.25 C-150.90234375 186.76171875 -150.90234375 186.76171875 -153.4765625 187.1171875 C-155.90234375 186.76171875 -155.90234375 186.76171875 -157.90234375 184.76171875 C-158.51522977 182.04110277 -158.26368063 180.37708132 -156.85009766 177.96972656 C-155.36161533 175.89178234 -153.80816139 173.88537041 -152.21484375 171.88671875 C-150.62157511 169.83850706 -149.03045702 167.78872671 -147.44384766 165.73535156 C-146.43451675 164.4430755 -145.40601327 163.1654949 -144.35693359 161.90527344 C-142.19881145 159.18951821 -140.89548449 157.47018211 -140.9296875 153.9375 C-141.41115234 152.36548828 -141.41115234 152.36548828 -141.90234375 150.76171875 C-142.30508649 149.235844 -142.70164029 147.7083292 -143.09375 146.1796875 C-143.31675781 145.33833252 -143.53976562 144.49697754 -143.76953125 143.63012695 C-148.8400406 124.07982389 -148.23645112 108.5520808 -137.90234375 90.76171875 C-136.30316656 88.45965837 -135.24845852 87.38595205 -132.90234375 85.76171875 C-129.2396477 85.57388818 -127.31409607 87.09237823 -124.58984375 89.32421875 C-123.70296875 90.12859375 -122.81609375 90.93296875 -121.90234375 91.76171875 C-122.23234375 90.77171875 -122.56234375 89.78171875 -122.90234375 88.76171875 C-123.79539179 81.24906723 -124.24222138 74.5756326 -119.65234375 68.19921875 C-118.10438728 66.35641343 -116.51740725 64.54600308 -114.90234375 62.76171875 C-113.95940154 61.65455439 -113.02078741 60.54369315 -112.0859375 59.4296875 C-110.07532013 57.04379909 -108.04569546 54.67670139 -105.99609375 52.32421875 C-102.99181318 48.87458 -100.03633077 45.3857361 -97.08984375 41.88671875 C-93.07871444 37.13270827 -89.02520396 32.41928438 -84.90234375 27.76171875 C-81.24173554 28.34708628 -79.35699211 29.84495775 -76.65234375 32.32421875 C-75.59273437 33.28521484 -75.59273437 33.28521484 -74.51171875 34.265625 C-73.71507812 35.00619141 -73.71507812 35.00619141 -72.90234375 35.76171875 C-72.88816406 34.48296875 -72.87398437 33.20421875 -72.859375 31.88671875 C-72.81244181 30.17835079 -72.76419463 28.47001858 -72.71484375 26.76171875 C-72.70614258 25.50294922 -72.70614258 25.50294922 -72.69726562 24.21875 C-72.43256574 16.63068664 -69.82182723 12.03374363 -64.83203125 6.44140625 C-46.61395056 -9.56002584 -20.74517486 -14.94706791 0 0 Z M-34.09375 -0.21484375 C-43.41646753 0.29119102 -53.18640403 6.55200564 -59.90234375 12.76171875 C-63.49884372 17.51838 -63.99420794 22.26863298 -64.1484375 28.10546875 C-64.19774414 29.60400391 -64.19774414 29.60400391 -64.24804688 31.1328125 C-64.30924154 33.21863915 -64.36653381 35.30458394 -64.41992188 37.390625 C-64.45408203 38.38964844 -64.48824219 39.38867188 -64.5234375 40.41796875 C-64.56102173 41.77631836 -64.56102173 41.77631836 -64.59936523 43.16210938 C-64.92769273 45.97921746 -65.74113464 48.18551289 -66.90234375 50.76171875 C-71.35160427 50.34857313 -73.74334479 47.25710348 -76.65234375 44.19921875 C-77.41224609 43.41901367 -77.41224609 43.41901367 -78.1875 42.62304688 C-79.4326878 41.34261791 -80.66845877 40.05304321 -81.90234375 38.76171875 C-86.05629552 40.32066102 -88.37136941 43.35898103 -91.08984375 46.69921875 C-91.81276611 47.56994019 -91.81276611 47.56994019 -92.55029297 48.45825195 C-96.30476702 52.99073027 -100.01978967 57.55727927 -103.6875 62.16015625 C-105.90234375 64.76171875 -105.90234375 64.76171875 -108.4609375 67.17578125 C-112.18535168 70.74331683 -114.62782268 73.12535788 -115.5 78.32421875 C-115.53222333 82.743418 -115.29609035 86.92806672 -114.3671875 91.25390625 C-113.78475262 94.39611798 -113.80758922 97.38102007 -113.83984375 100.57421875 C-113.84886719 101.73566406 -113.85789062 102.89710938 -113.8671875 104.09375 C-113.87878906 104.97417969 -113.89039063 105.85460937 -113.90234375 106.76171875 C-118.82371284 106.34719483 -120.75528261 104.25645953 -124.02734375 100.69921875 C-126.49245179 97.95895777 -126.49245179 97.95895777 -128.90234375 95.76171875 C-129.89234375 95.76171875 -130.88234375 95.76171875 -131.90234375 95.76171875 C-140.57833942 111.32552778 -140.26964824 126.37604944 -135.97265625 143.33984375 C-135.18415718 146.78908978 -135.18415718 146.78908978 -132.90234375 148.76171875 C-127.52162778 142.89762877 -122.34926225 136.91787597 -117.33984375 130.734375 C-114.63343303 127.43376834 -111.8719307 124.18602684 -109.08984375 120.94921875 C-108.58565918 120.36261475 -108.08147461 119.77601074 -107.56201172 119.17163086 C-105.48977119 116.76320063 -103.41524931 114.35674053 -101.34082031 111.95019531 C-96.30174804 106.10132863 -91.27140392 100.25373334 -86.40234375 94.26171875 C-78.63600423 84.71821686 -70.61236942 75.44474311 -62.20532227 66.46118164 C-58.2253905 62.18162153 -54.53478425 57.70783293 -50.8828125 53.14453125 C-49.12544301 51.03014192 -47.31612538 49.10639962 -45.33984375 47.19921875 C-44.53546875 46.39484375 -43.73109375 45.59046875 -42.90234375 44.76171875 C-42.90234375 44.10171875 -42.90234375 43.44171875 -42.90234375 42.76171875 C-42.24234375 42.76171875 -41.58234375 42.76171875 -40.90234375 42.76171875 C-40.30421875 41.93671875 -39.70609375 41.11171875 -39.08984375 40.26171875 C-36.90234375 37.76171875 -36.90234375 37.76171875 -34.21484375 37.38671875 C-31.90234375 37.76171875 -31.90234375 37.76171875 -30.90234375 38.76171875 C-30.46484375 40.88671875 -30.46484375 40.88671875 -30.90234375 43.76171875 C-32.34625818 45.71921208 -33.90778015 47.45489425 -35.58984375 49.2109375 C-37.11768656 50.67754914 -37.11768656 50.67754914 -36.90234375 52.76171875 C-38.38734375 53.25671875 -38.38734375 53.25671875 -39.90234375 53.76171875 C-41.27716827 55.29124751 -42.57900272 56.88694781 -43.83984375 58.51171875 C-47.36664307 62.93885546 -51.02719042 67.13760649 -54.90234375 71.26171875 C-58.53248101 75.1357985 -62.01988316 79.05079093 -65.33984375 83.19921875 C-68.84877879 87.57424302 -72.56082028 91.68189284 -76.40234375 95.76171875 C-81.069449 100.71900671 -85.46814552 105.80000506 -89.7265625 111.1171875 C-92.03266075 113.92011123 -94.44385906 116.5917515 -96.90234375 119.26171875 C-100.9305353 123.64315171 -104.72815145 128.15432686 -108.46484375 132.78515625 C-111.84778186 136.91624413 -115.33406765 140.9554959 -118.82958984 144.99145508 C-123.68752172 149.81436008 -123.68752172 149.81436008 -125.90234375 155.76171875 C-120.88243076 157.07720958 -115.86534933 156.94558908 -110.71484375 156.94921875 C-109.81958984 156.96146484 -108.92433594 156.97371094 -108.00195312 156.98632812 C-99.3994071 157.0049618 -91.49212347 155.73918635 -83.52734375 152.38671875 C-82.55023437 151.98710937 -81.573125 151.5875 -80.56640625 151.17578125 C-77.7892276 149.70167763 -75.99274376 148.08988938 -73.90234375 145.76171875 C-74.66160156 145.07464844 -75.42085937 144.38757813 -76.203125 143.6796875 C-77.20706758 142.76957133 -78.21097182 141.85941285 -79.21484375 140.94921875 C-79.96411133 140.27149414 -79.96411133 140.27149414 -80.72851562 139.58007812 C-82.12503024 138.31304169 -83.51392293 137.03761922 -84.90234375 135.76171875 C-85.51464844 135.22160156 -86.12695312 134.68148437 -86.7578125 134.125 C-87.90234375 132.76171875 -87.90234375 132.76171875 -87.90234375 129.76171875 C-87.05526855 129.75237305 -86.20819336 129.74302734 -85.33544922 129.73339844 C-82.17040023 129.68919263 -79.00629563 129.62749348 -75.84179688 129.55419922 C-74.47636211 129.52610252 -73.11076811 129.50483198 -71.74511719 129.49072266 C-69.77380337 129.46913893 -67.80284744 129.42036415 -65.83203125 129.37109375 C-64.64851074 129.35014648 -63.46499023 129.32919922 -62.24560547 129.30761719 C-51.90963861 127.61992755 -44.48408525 116.36766858 -38.34375 108.7109375 C-35.23392663 104.95427087 -31.95260191 101.38005383 -28.61987305 97.82128906 C-23.92043063 93.42339233 -23.92043063 93.42339233 -21.90234375 87.76171875 C-24.31308298 86.14566355 -26.71007725 84.65515741 -29.21484375 83.19921875 C-29.90513672 82.78736328 -30.59542969 82.37550781 -31.30664062 81.95117188 C-34.17983062 80.25501817 -36.72164162 78.82195279 -39.90234375 77.76171875 C-39.52734375 75.82421875 -39.52734375 75.82421875 -38.90234375 73.76171875 C-36.23084711 72.42597043 -33.61986961 72.4160673 -30.68017578 72.16699219 C-14.39052374 71.37499643 -14.39052374 71.37499643 -0.77734375 63.94921875 C0.15078125 62.37140625 0.15078125 62.37140625 1.09765625 60.76171875 C1.81953125 59.68921875 2.54140625 58.61671875 3.28515625 57.51171875 C5.35228508 53.79422093 6.0294522 49.96873817 6.703125 45.80078125 C7.09765625 43.76171875 7.09765625 43.76171875 8.09765625 42.76171875 C9.2820266 31.05337187 6.94542467 21.00578268 0.28515625 11.26171875 C-2.87871182 7.41814501 -6.48127736 4.98488356 -10.90234375 2.76171875 C-11.50691406 2.44203125 -12.11148438 2.12234375 -12.734375 1.79296875 C-19.6173805 -1.33698743 -26.73672617 -0.2935285 -34.09375 -0.21484375 Z " fill="#E38734" transform="translate(788.90234375,289.23828125)"/>
<path d="M0 0 C1.43324615 -0.01007584 1.43324615 -0.01007584 2.89544678 -0.02035522 C6.04151676 -0.03928787 9.18737274 -0.04325751 12.33349609 -0.04541016 C14.53437384 -0.05184297 16.73525073 -0.05857169 18.93612671 -0.06558228 C23.54760722 -0.0775444 28.15901289 -0.08126435 32.77050781 -0.08007812 C38.65112801 -0.07987537 44.53126257 -0.10713746 50.41176796 -0.14162254 C54.95883341 -0.16397331 59.50578367 -0.16791311 64.05289841 -0.16685867 C66.21921837 -0.16920387 68.38554204 -0.17796573 70.5518074 -0.19352341 C86.5373332 -0.29755035 100.63426155 0.08751591 113.23193359 11.29052734 C121.48271813 20.02245914 124.23193359 29.47354983 124.23193359 41.29052734 C69.45193359 41.29052734 14.67193359 41.29052734 -41.76806641 41.29052734 C-41.76806641 28.72047242 -39.53683526 20.41502719 -30.76806641 11.29052734 C-21.53249002 3.12677801 -12.1266334 -0.01235688 0 0 Z " fill="#DD915D" transform="translate(674.76806640625,153.70947265625)"/>
<path d="M0 0 C1.54879197 0.02512431 3.09762336 0.04793016 4.64648438 0.06835938 C8.41114338 0.12300686 12.17387902 0.2090426 15.9375 0.3125 C15.21216064 1.63423218 15.21216064 1.63423218 14.47216797 2.98266602 C13.83284421 4.15632366 13.1936932 5.33007541 12.5546875 6.50390625 C11.92675293 7.65318604 11.29881836 8.80246582 10.65185547 9.98657227 C5.93763253 19.1323796 5.70009714 26.63614008 4.9375 37.3125 C56.4175 37.3125 107.8975 37.3125 160.9375 37.3125 C157.53690143 17.66486828 157.53690143 17.66486828 149.9375 0.3125 C182.18389682 0.00740309 182.18389682 0.00740309 192.3125 6.9375 C194.9223531 10.75190069 196.35358571 14.99333878 197.9375 19.3125 C198.9275 21.7875 198.9275 21.7875 199.9375 24.3125 C199.9375 28.9325 199.9375 33.5525 199.9375 38.3125 C122.3875 38.3125 44.8375 38.3125 -35.0625 38.3125 C-35.0625 26.82742617 -34.40700565 14.18830377 -26.0625 5.3125 C-18.43288467 -1.19345386 -9.40782354 -0.26643938 0 0 Z " fill="#DF935F" transform="translate(635.0625,531.6875)"/>
<path d="M0 0 C0.65496611 -0.00453111 1.30993223 -0.00906223 1.9847458 -0.01373065 C4.16001415 -0.02630097 6.33502976 -0.0247591 8.5103302 -0.02310181 C10.07808246 -0.02909179 11.64583179 -0.03589842 13.21357727 -0.04345703 C17.45971671 -0.06107929 21.70577546 -0.0658109 25.95194793 -0.0670886 C28.60962934 -0.06851324 31.26729045 -0.07278881 33.92496681 -0.07808304 C43.21075866 -0.0965729 52.49649321 -0.10475522 61.78230286 -0.10317993 C70.41477658 -0.10197976 79.04699978 -0.12306023 87.67941016 -0.15466726 C95.10898861 -0.18089303 102.53848557 -0.19154455 109.96810991 -0.19026911 C114.39730891 -0.1897612 118.82628528 -0.19534885 123.25543785 -0.21662521 C127.42606885 -0.23611343 131.59626733 -0.23606052 135.76691437 -0.22159195 C137.28897808 -0.21951559 138.81106961 -0.224134 140.33308601 -0.23631287 C153.67779058 -0.33609226 166.0485062 1.85332619 176.16975403 11.14242554 C177.86221369 12.81799438 179.51242048 14.51684871 181.12678528 16.26742554 C180.79678528 16.92742554 180.46678528 17.58742554 180.12678528 18.26742554 C179.5931134 17.9902771 179.05944153 17.71312866 178.50959778 17.42758179 C177.76451965 17.06535522 177.01944153 16.70312866 176.25178528 16.32992554 C175.5324884 15.9702771 174.81319153 15.61062866 174.07209778 15.24008179 C164.28894741 12.00930667 153.10019413 13.11231607 142.90486145 13.10629272 C141.06915692 13.1016574 139.23345334 13.09663179 137.39775085 13.09124756 C132.43742204 13.07820077 127.47710671 13.0716952 122.51676345 13.0672369 C119.41606387 13.06429704 116.31536792 13.06019081 113.21467018 13.05573273 C103.50720431 13.04208567 93.79974678 13.03240222 84.09227198 13.02853084 C72.89489889 13.0240399 61.69764724 13.00643244 50.50031108 12.97753024 C41.83343384 12.95593619 33.16659087 12.94582797 24.49968702 12.94448972 C19.32688386 12.94344118 14.15419531 12.93752135 8.98142052 12.9196701 C4.12303913 12.90322617 -0.73514094 12.90101595 -5.59354019 12.90980911 C-7.37655488 12.91058114 -9.15958026 12.90621507 -10.94256783 12.89635086 C-13.37528328 12.88367985 -15.80728013 12.88948108 -18.23999023 12.89993286 C-19.29932312 12.88784825 -19.29932312 12.88784825 -20.38005668 12.87551951 C-24.77452649 12.91971917 -27.2414666 13.87570956 -30.87321472 16.26742554 C-31.53321472 15.93742554 -32.19321472 15.60742554 -32.87321472 15.26742554 C-23.26183727 5.87676866 -13.83645078 0.03979938 0 0 Z " fill="#F9CE6B" transform="translate(643.8732147216797,519.7325744628906)"/>
<path d="M0 0 C1.60421051 -0.00599302 3.20841815 -0.01280034 4.81262207 -0.02035522 C9.14968326 -0.03794568 13.48666542 -0.04270771 17.82375884 -0.0439868 C20.54009483 -0.04541313 23.25641103 -0.04969188 25.97274208 -0.05498123 C35.4683318 -0.07345993 44.96386555 -0.08165473 54.45947266 -0.08007812 C63.27939838 -0.07887797 72.0990789 -0.09996121 80.91894263 -0.13156545 C88.51674386 -0.1578103 96.11446542 -0.16844196 103.71231157 -0.16716731 C108.2387937 -0.16666 112.76505781 -0.17221417 117.29149437 -0.19352341 C121.55408184 -0.21304429 125.81624644 -0.21293684 130.07884979 -0.19849014 C131.63232614 -0.19641785 133.18582993 -0.20100727 134.73925972 -0.21321106 C155.23693803 -0.3636526 170.4692212 6.01610695 185.05395508 20.29052734 C184.72395508 21.61052734 184.39395508 22.93052734 184.05395508 24.29052734 C182.07395508 24.78552734 182.07395508 24.78552734 180.05395508 25.29052734 C180.05395508 25.95052734 180.05395508 26.61052734 180.05395508 27.29052734 C176.97660524 25.91453171 174.85341666 24.30447878 172.42895508 21.97802734 C160.7649907 11.58845907 147.1531093 9.83736306 132.11450195 9.90234375 C130.52335756 9.89827167 128.93221599 9.89292624 127.34107971 9.88641357 C123.04561151 9.87280977 118.750361 9.87800976 114.4548893 9.88755083 C109.94457061 9.89518356 105.43426967 9.88809183 100.9239502 9.88339233 C93.35185423 9.87794526 85.77984625 9.8850988 78.20776367 9.89941406 C69.4724057 9.91573856 60.73725785 9.9104493 52.00190496 9.89393485 C44.48142123 9.88029003 36.96100049 9.87841493 29.44050837 9.88625085 C24.95781673 9.89091093 20.47522363 9.89159829 15.99253845 9.88164139 C11.77677079 9.87293025 7.56127218 9.87906877 3.34553337 9.89632416 C1.80489993 9.90026697 0.26424357 9.89919308 -1.27638054 9.89253616 C-18.36908443 9.82552899 -31.51064804 14.19796096 -43.94604492 26.29052734 C-44.60604492 26.95052734 -45.26604492 27.61052734 -45.94604492 28.29052734 C-45.94604492 25.45085503 -45.54337311 23.05317023 -44.94604492 20.29052734 C-45.60604492 19.96052734 -46.26604492 19.63052734 -46.94604492 19.29052734 C-46.63545343 16.16319233 -46.33773214 14.67093139 -44.04760742 12.44677734 C-29.62080795 2.79857076 -17.14005236 -0.01282227 0 0 Z " fill="#804A2F" transform="translate(649.946044921875,237.70947265625)"/>
<path d="M0 0 C0.88962433 0.02028259 1.77924866 0.04056519 2.6958313 0.0614624 C4.56314757 0.10668875 6.4303387 0.15739082 8.29736328 0.21337891 C11.1186543 0.29645808 13.93984177 0.35851426 16.76171875 0.41796875 C29.05322876 0.71713681 40.79189387 1.19590943 52.2578125 6.046875 C52.2578125 6.706875 52.2578125 7.366875 52.2578125 8.046875 C53.2478125 8.3253125 53.2478125 8.3253125 54.2578125 8.609375 C58.53703767 10.65983706 61.98818416 13.61682097 65.2578125 17.046875 C65.7528125 18.531875 65.7528125 18.531875 66.2578125 20.046875 C29.6278125 20.046875 -7.0021875 20.046875 -44.7421875 20.046875 C-40.67645947 11.91541895 -32.82642373 6.28325336 -24.3046875 3.296875 C-16.14142906 0.97047226 -8.49288814 -0.26542531 0 0 Z " fill="#D48D5E" transform="translate(706.7421875,490.953125)"/>
<path d="M0 0 C12.81379873 -0.09299305 25.62751616 -0.16391331 38.44158459 -0.20724869 C44.39273756 -0.22805551 50.34365835 -0.25624646 56.29467773 -0.30175781 C62.04593985 -0.34546242 67.79697969 -0.36918895 73.54839516 -0.37950897 C75.73427131 -0.38685633 77.92013636 -0.40120314 80.10591698 -0.42292023 C96.18429126 -0.57620501 110.32142466 -0.2749581 123 11 C131.25078453 19.7319318 134 29.18302249 134 41 C79.22 41 24.44 41 -32 41 C-32 37.7 -32 34.4 -32 31 C-31.67 31 -31.34 31 -31 31 C-31 33.97 -31 36.94 -31 40 C12.23 40 55.46 40 100 40 C96.93264486 19.34728611 96.93264486 19.34728611 85 3 C84.505 2.505 84.505 2.505 84 2 C81.38399547 1.87492518 78.79308066 1.81394595 76.17553711 1.79467773 C74.94636818 1.77982834 74.94636818 1.77982834 73.69236755 1.76467896 C70.97072283 1.73296945 68.24906061 1.70826938 65.52734375 1.68359375 C63.64546747 1.66303237 61.76359589 1.64203612 59.88172913 1.62062073 C54.91856689 1.56531574 49.9553624 1.51594377 44.99212646 1.46777344 C39.93156149 1.41761978 34.8710582 1.36190176 29.81054688 1.30664062 C19.87375055 1.19895605 9.93690077 1.09753411 0 1 C0 0.67 0 0.34 0 0 Z " fill="#C3784D" transform="translate(665,154)"/>
<path d="M0 0 C4.16919765 4.06496771 4.59127844 8.58979165 5 14.1875 C4.82941957 22.79525114 -0.74230447 30.38453804 -6.5 36.4375 C-10.77457523 40.2950435 -13.23930112 41.27004082 -18.875 41.6875 C-24.21974133 41.31889715 -27.14934393 39.82369965 -30.875 36 C-33.75198798 29.69275711 -33.69566883 23.66580585 -31.2890625 17.16796875 C-25.1573761 4.54665487 -15.01147875 -6.70155302 0 0 Z " fill="#FCF4CA" transform="translate(647.5,269.5625)"/>
<path d="M0 0 C6.15415116 4.32512022 10.85443913 10.93888956 12.3125 18.375 C12.45722906 22.39123152 12.40188011 26.3528949 12.3125 30.375 C8.0225 30.375 3.7325 30.375 -0.6875 30.375 C-0.749375 28.89 -0.81125 27.405 -0.875 25.875 C-1.43634842 20.3784634 -3.039355 16.53149307 -6.6875 12.375 C-11.28244655 8.78870025 -16.20545975 8.86983595 -21.83984375 9.0234375 C-25.72429909 9.50299989 -27.85929268 10.69182895 -30.6875 13.375 C-33.40677342 17.17670265 -34.11993134 20.04525037 -34.375 24.6875 C-34.478125 26.564375 -34.58125 28.44125 -34.6875 30.375 C-39.3075 30.375 -43.9275 30.375 -48.6875 30.375 C-49.10634007 20.46245162 -47.75166416 13.07721705 -41.41796875 5.2265625 C-29.61474183 -7.40262387 -14.63025604 -8.807512 0 0 Z " fill="#D88D5C" transform="translate(733.6875,114.625)"/>
<path d="M0 0 C2.9375 1.5 2.9375 1.5 5 4 C5.84516686 7.92801361 5.56044575 10.98100773 3.625 14.5 C2 16 2 16 0 16 C0 16.66 0 17.32 0 18 C-4.20965814 18.41271158 -6.35587659 18.42484735 -9.9375 16.0625 C-12.35365674 12.47487333 -12.7425028 10.34295081 -12.48046875 6.09375 C-12 4 -12 4 -9.9375 1.4375 C-6.25456163 -0.36478899 -4.05704375 -0.57957768 0 0 Z " fill="#FBF5BE" transform="translate(620,320)"/>
<path d="M0 0 C0.66 0.33 1.32 0.66 2 1 C1.46890625 1.49628906 0.9378125 1.99257812 0.390625 2.50390625 C-4.04932966 6.77371667 -7.09917947 10.59847212 -10 16 C-11.55992155 18.16099224 -13.18037181 20.03671695 -15 22 C-15.66 22 -16.32 22 -17 22 C-17.268125 22.5775 -17.53625 23.155 -17.8125 23.75 C-19.01956868 26.03707749 -20.45100356 27.93467141 -22 30 C-23.92691406 33.20918778 -24.21363278 35.65967387 -24.3125 39.375 C-24.71177385 44.89828829 -25.90590589 47.30532971 -30 51 C-30.66 51 -31.32 51 -32 51 C-31.45203541 45.75712891 -30.19780703 41.2743303 -28.0625 36.4375 C-27.75892578 35.74785156 -27.45535156 35.05820313 -27.14257812 34.34765625 C-21.00659313 21.02659141 -11.3158838 9.23745616 0 0 Z " fill="#71584D" transform="translate(584,215)"/>
<path d="M0 0 C0.33 0 0.66 0 1 0 C1 1.98 1 3.96 1 6 C1.66 6 2.32 6 3 6 C3.02929977 9.35414799 3.0468989 12.70826253 3.0625 16.0625 C3.07087891 17.00544922 3.07925781 17.94839844 3.08789062 18.91992188 C3.10581103 24.0630768 2.89259611 28.93258427 2 34 C1.01 33.67 0.02 33.34 -1 33 C-1.02920143 28.81251481 -1.04686646 24.62505609 -1.0625 20.4375 C-1.07087891 19.25607422 -1.07925781 18.07464844 -1.08789062 16.85742188 C-1.10392999 11.13136928 -1.0510705 5.63605518 0 0 Z " fill="#6B5144" transform="translate(525,429)"/>
<path d="M0 0 C0.66 0 1.32 0 2 0 C-1.16504646 9.2452673 -9.61453702 17.75076209 -17 24 C-17.99 24.33 -18.98 24.66 -20 25 C-20 24.01 -20 23.02 -20 22 C-19.34 22 -18.68 22 -18 22 C-18 21.01 -18 20.02 -18 19 C-16.00669158 17.65668346 -14.00615134 16.32405988 -12 15 C-11.31926781 13.67379266 -10.6536127 12.33978082 -10 11 C-8.37890625 9.21875 -8.37890625 9.21875 -6.5625 7.5 C-4.56077596 5.56887619 -2.85248362 3.8016159 -1.1875 1.5625 C-0.795625 1.046875 -0.40375 0.53125 0 0 Z " fill="#6F6057" transform="translate(888,512)"/>
<path d="M0 0 C0.66 0.33 1.32 0.66 2 1 C-3 6 -3 6 -5.5 8.4375 C-7.36981005 10.3540553 -9.02241847 12.23236882 -10.6875 14.3125 C-11.8321875 15.6428125 -11.8321875 15.6428125 -13 17 C-13.66 17 -14.32 17 -15 17 C-15.66 18.32 -16.32 19.64 -17 21 C-17.66 21 -18.32 21 -19 21 C-15.89523206 11.06474259 -8.32666983 5.57086807 0 0 Z " fill="#6C5A52" transform="translate(648,150)"/>
<path d="M0 0 C0.33 0 0.66 0 1 0 C1.05880804 3.16658663 1.09386406 6.33302993 1.125 9.5 C1.14175781 10.386875 1.15851562 11.27375 1.17578125 12.1875 C1.21735431 17.84143554 0.59737554 22.57483938 -1 28 C-1.33 29.258125 -1.66 30.51625 -2 31.8125 C-3 35 -3 35 -5 38 C-3.69327466 25.2709579 -1.97935861 12.64150368 0 0 Z " fill="#746C67" transform="translate(536,356)"/>
<path d="M0 0 C0.33 0 0.66 0 1 0 C1.74068072 7.73599859 0.60999026 13.62704434 -4 20 C-6.49622622 22.31627646 -9.09607644 24.22738165 -12 26 C-12.66 25.67 -13.32 25.34 -14 25 C-13.505 23.515 -13.505 23.515 -13 22 C-10.9375 21.3125 -10.9375 21.3125 -9 21 C-9 20.34 -9 19.68 -9 19 C-8.34 19 -7.68 19 -7 19 C-2.88637848 14.38775769 -2.48966136 10.47815821 -2.2734375 4.390625 C-2 2 -2 2 0 0 Z " fill="#74635E" transform="translate(862,587)"/>
<path d="M0 0 C9.25431921 1.49263213 16.51631659 5.14539648 23 12 C20.875 12.3125 20.875 12.3125 18 12 C16.58830796 10.78528825 15.18049992 9.56480541 13.81640625 8.296875 C10.89981947 6.21449476 7.63363912 5.63163284 4.171875 4.87109375 C2 4 2 4 0.703125 1.91015625 C0.47109375 1.27980469 0.2390625 0.64945313 0 0 Z " fill="#6B5B55" transform="translate(771,146)"/>
<path d="M0 0 C0.33 0.99 0.66 1.98 1 3 C-4.39825795 5.134195 -9.64891986 5.62672484 -15.375 6.125 C-16.30183594 6.21136719 -17.22867188 6.29773438 -18.18359375 6.38671875 C-20.45522701 6.59748885 -22.72724727 6.80173181 -25 7 C-19.67008582 1.67008582 -10.48888372 1.59176193 -3.37109375 1.2109375 C-1.04576461 1.25965358 -1.04576461 1.25965358 0 0 Z " fill="#6E5E56" transform="translate(675,143)"/>
<path d="M0 0 C1.25009462 3.91289781 1.25687554 7.86949799 1.3125 11.9375 C1.34150391 12.64068359 1.37050781 13.34386719 1.40039062 14.06835938 C1.44677866 17.87574691 1.12782446 19.80987038 -1.01953125 23.00390625 C-1.67308594 23.66261719 -2.32664062 24.32132812 -3 25 C-3.38558031 16.14593366 -2.56943546 8.48831358 0 0 Z " fill="#704432" transform="translate(551,266)"/>
<path d="M0 0 C1.98 0.99 1.98 0.99 4 2 C4 2.66 4 3.32 4 4 C5.175625 4.4640625 5.175625 4.4640625 6.375 4.9375 C9 6 9 6 11 7 C16.96532949 7.41913263 22.43156539 7.40797172 28 5 C28 4.34 28 3.68 28 3 C28.99 3.33 29.98 3.66 31 4 C29.70903219 4.81360995 28.41720125 5.62585046 27.125 6.4375 C26.40570312 6.88996094 25.68640625 7.34242188 24.9453125 7.80859375 C20.61903079 10.45822412 17.00915302 10.58320282 12 10 C7.22948223 8.38754828 3.1757269 5.96965862 0 2 C0 1.34 0 0.68 0 0 Z " fill="#FAEC9C" transform="translate(619,481)"/>
<path d="M0 0 C0.33 0 0.66 0 1 0 C1.74060074 4.48244314 2.47068992 8.96642591 3.19116211 13.45214844 C3.43763885 14.97735495 3.68696339 16.50210413 3.93920898 18.02636719 C4.30164288 20.2195569 4.65374632 22.41419651 5.00390625 24.609375 C5.11843643 25.2886908 5.23296661 25.96800659 5.35096741 26.66790771 C5.87841488 30.03943575 6.18610188 32.75534441 5 36 C5 35.34 5 34.68 5 34 C4.34 34 3.68 34 3 34 C2.16035183 28.68693215 1.71817391 23.4321139 1.4375 18.0625 C1.39431641 17.28326172 1.35113281 16.50402344 1.30664062 15.70117188 C1.20171923 13.80092883 1.1004755 11.90048331 1 10 C0.34 10 -0.32 10 -1 10 C-0.67 6.7 -0.34 3.4 0 0 Z " fill="#73777B" transform="translate(894,341)"/>
<path d="M0 0 C-6.5 4 -6.5 4 -11 4 C-11 4.66 -11 5.32 -11 6 C-11.66 6 -12.32 6 -13 6 C-13.25910156 6.59167969 -13.51820313 7.18335938 -13.78515625 7.79296875 C-15.08714093 10.15831069 -16.40490423 11.550917 -18.4375 13.3125 C-19.03433594 13.84488281 -19.63117187 14.37726563 -20.24609375 14.92578125 C-20.82488281 15.28027344 -21.40367187 15.63476562 -22 16 C-22.99 15.67 -23.98 15.34 -25 15 C-23 12 -23 12 -20 11 C-19.443125 10.2575 -18.88625 9.515 -18.3125 8.75 C-14.24385466 3.91161095 -6.45197373 -2.15065791 0 0 Z " fill="#FAE894" transform="translate(735,273)"/>
<path d="M0 0 C0.99 0 1.98 0 3 0 C3.48279288 4.82792879 3.82060585 8.65467701 0.625 12.5625 C-2 15 -2 15 -4 15 C-3.43179252 9.54520815 -2.05362055 5.08940744 0 0 Z " fill="#6E4734" transform="translate(556,251)"/>
<path d="M0 0 C0.33 0 0.66 0 1 0 C1.50612064 2.8740422 2.00506541 5.74902873 2.5 8.625 C2.64308594 9.43324219 2.78617188 10.24148438 2.93359375 11.07421875 C3.67876251 15.43877864 4.17272306 19.55238129 4 24 C3.01 24.33 2.02 24.66 1 25 C0.15605748 21.3736845 -0.0819319 18.09265987 0 14.375 C0.07083601 11.14310717 0.03114583 9.09343748 -1 6 C-0.72428861 3.99124558 -0.39764263 1.98821313 0 0 Z " fill="#6D5A55" transform="translate(887,298)"/>
<path d="M0 0 C0.71875 1.6875 0.71875 1.6875 1 4 C-2.73757392 10.47846145 -7.44614832 14.65882071 -14 18 C-15.76323505 20.12603185 -15.76323505 20.12603185 -17 22 C-17.66 22 -18.32 22 -19 22 C-19 19 -19 19 -17.1875 16.8125 C-15 15 -15 15 -12 15 C-11.67 14.34 -11.34 13.68 -11 13 C-10.38511719 12.73316406 -9.77023437 12.46632813 -9.13671875 12.19140625 C-6.29213036 10.60530121 -5.39153097 8.75864787 -3.8125 5.9375 C-1.03311258 1.03311258 -1.03311258 1.03311258 0 0 Z " fill="#FBF1A5" transform="translate(709,289)"/>
<path d="M0 0 C0.66 0.33 1.32 0.66 2 1 C1.20335937 1.74443359 1.20335937 1.74443359 0.390625 2.50390625 C-4.03232467 6.75736333 -7.13852295 10.59498779 -10 16 C-11.625 17.9375 -11.625 17.9375 -13 19 C-13.66 19 -14.32 19 -15 19 C-12.92124076 10.47708713 -6.58474752 5.31844992 0 0 Z " fill="#6E5247" transform="translate(584,215)"/>
<path d="M0 0 C0.66 0.33 1.32 0.66 2 1 C1.525625 1.433125 1.05125 1.86625 0.5625 2.3125 C-1.23686957 4.02309613 -1.23686957 4.02309613 -2 7 C-4.4375 9.6875 -4.4375 9.6875 -7 12 C-7.66 12 -8.32 12 -9 12 C-9.37125 12.804375 -9.37125 12.804375 -9.75 13.625 C-14.33333333 22.33333333 -14.33333333 22.33333333 -19 24 C-17.72485189 19.66449642 -15.60066001 17.37957018 -12.33984375 14.4296875 C-10.74286991 12.9252405 -10.74286991 12.9252405 -10 10 C-9.01 9.67 -8.02 9.34 -7 9 C-5.79117904 6.99983534 -5.79117904 6.99983534 -5 5 C-4.34 5 -3.68 5 -3 5 C-2.690625 4.360625 -2.38125 3.72125 -2.0625 3.0625 C-1 1 -1 1 0 0 Z " fill="#FBF4B0" transform="translate(680,320)"/>
<path d="M0 0 C0.33 0 0.66 0 1 0 C1.50579714 3.04080421 2.00480759 6.08246646 2.5 9.125 C2.64308594 9.9809375 2.78617188 10.836875 2.93359375 11.71875 C3.65695734 16.19671505 4.17918816 20.44563435 4 25 C3.01 24.67 2.02 24.34 1 24 C1.03255208 21.94921875 1.06510417 19.8984375 1.09765625 17.84765625 C1.20561184 15.98267859 1.20561184 15.98267859 0 15 C0.17635452 12.30917128 0.61835921 9.67148554 1 7 C0.34 7 -0.32 7 -1 7 C-0.67 4.69 -0.34 2.38 0 0 Z " fill="#6F6867" transform="translate(902,392)"/>
<path d="M0 0 C0.33 0 0.66 0 1 0 C1 7.92 1 15.84 1 24 C0.01 24.33 -0.98 24.66 -2 25 C-2.3690205 8.29157175 -2.3690205 8.29157175 0 0 Z " fill="#F2C466" transform="translate(574,429)"/>
<path d="M0 0 C1.19356872 3.58070616 0.47017585 4.68380679 -1.15625 7.94726562 C-1.4759375 8.56279297 -1.795625 9.17832031 -2.125 9.8125 C-2.56972656 10.71838867 -2.56972656 10.71838867 -3.0234375 11.64257812 C-5.20649117 15.93930877 -7.80661167 19.39224467 -11 23 C-11.33 22.01 -11.66 21.02 -12 20 C-10.6875 17.8125 -10.6875 17.8125 -9 16 C-8.34 16 -7.68 16 -7 16 C-6.814375 14.88625 -6.814375 14.88625 -6.625 13.75 C-6.04513299 11.19858515 -5.26291261 9.2732427 -4 7 C-3.34 7 -2.68 7 -2 7 C-1.34 4.69 -0.68 2.38 0 0 Z M-16 25 C-14 26 -14 26 -14 26 Z " fill="#FAE999" transform="translate(815,348)"/>
<path d="M0 0 C0 0.66 0 1.32 0 2 C-1.53125 3.2890625 -1.53125 3.2890625 -3.5 4.625 C-4.47453125 5.29402344 -4.47453125 5.29402344 -5.46875 5.9765625 C-5.9740625 6.31429687 -6.479375 6.65203125 -7 7 C-7.66 6.67 -8.32 6.34 -9 6 C-9.103125 6.639375 -9.20625 7.27875 -9.3125 7.9375 C-9.539375 8.618125 -9.76625 9.29875 -10 10 C-10.99 10.33 -11.98 10.66 -13 11 C-13.33 11.99 -13.66 12.98 -14 14 C-14.99 14.33 -15.98 14.66 -17 15 C-14.36530967 8.77255012 -7.48996357 0 0 0 Z " fill="#6B5F5C" transform="translate(699,104)"/>
<path d="M0 0 C0 0.33 0 0.66 0 1 C-3.9374838 1.02946879 -7.87493856 1.04695407 -11.8125 1.0625 C-13.46282227 1.07506836 -13.46282227 1.07506836 -15.14648438 1.08789062 C-22.15732634 1.10857157 -29.03175126 0.77677977 -36 0 C-36 -0.33 -36 -0.66 -36 -1 C-23.82105829 -2.5379551 -12.14003141 -1.34724337 0 0 Z " fill="#E09752" transform="translate(691,453)"/>
<path d="M0 0 C13.365 0.495 13.365 0.495 27 1 C27 1.33 27 1.66 27 2 C13.63983335 3.25131244 13.63983335 3.25131244 7.5 2.3125 C4.05330723 1.84611583 2.29352944 1.99633856 -0.625 3.9375 C-1.40875 4.618125 -2.1925 5.29875 -3 6 C-3 5.01 -3 4.02 -3 3 C-2.34 3 -1.68 3 -1 3 C-0.67 2.01 -0.34 1.02 0 0 Z " fill="#FAF1A7" transform="translate(661,468)"/>
<path d="M0 0 C2 2 2 2 2 5 C1.34 5 0.68 5 0 5 C0.0928125 6.5159375 0.0928125 6.5159375 0.1875 8.0625 C-0.02642827 12.55499372 -1.04613532 15.01085961 -3 19 C-3.33 19 -3.66 19 -4 19 C-4.53699151 11.88486245 -2.69707634 6.55004254 0 0 Z " fill="#6F5F57" transform="translate(628,171)"/>
<path d="M0 0 C-3.13498292 1.85776765 -5.37471432 2.20140476 -9 2 C-9 1.34 -9 0.68 -9 0 C-14.28 -0.33 -19.56 -0.66 -25 -1 C-25 -1.33 -25 -1.66 -25 -2 C-16.80811442 -3.7145807 -7.67351237 -3.49444337 0 0 Z " fill="#6E7172" transform="translate(731,102)"/>
<path d="M0 0 C0.66 0.33 1.32 0.66 2 1 C1.67 1.66 1.34 2.32 1 3 C0.84876169 4.5195764 0.75118307 6.04472502 0.68359375 7.5703125 C0.64169922 8.46621094 0.59980469 9.36210937 0.55664062 10.28515625 C0.51732422 11.22230469 0.47800781 12.15945313 0.4375 13.125 C0.39431641 14.06988281 0.35113281 15.01476562 0.30664062 15.98828125 C0.20040928 18.32537092 0.09836824 20.6625683 0 23 C-1.32 21.68 -2.64 20.36 -4 19 C-3.34 19 -2.68 19 -2 19 C-2.02320313 18.04738281 -2.04640625 17.09476562 -2.0703125 16.11328125 C-2.08835937 14.85902344 -2.10640625 13.60476563 -2.125 12.3125 C-2.15980469 10.45044922 -2.15980469 10.45044922 -2.1953125 8.55078125 C-2.01032021 5.18762143 -1.45767895 3.0014413 0 0 Z " fill="#F1EAAB" transform="translate(717,303)"/>
<path d="M0 0 C0.33 0 0.66 0 1 0 C1.125 2.375 1.125 2.375 1 5 C-1.50622054 7.50622054 -3.32020715 7.7477109 -6.75 8.5625 C-7.77609375 8.81128906 -8.8021875 9.06007812 -9.859375 9.31640625 C-12.8960056 9.9773644 -15.93042946 10.51750762 -19 11 C-15.84388587 8.3458221 -12.84829424 7.07732936 -8.9375 5.8125 C-7.37322266 5.29623047 -7.37322266 5.29623047 -5.77734375 4.76953125 C-3 4 -3 4 0 4 C0 2.68 0 1.36 0 0 Z " fill="#726562" transform="translate(623,193)"/>
<path d="M0 0 C2.36574234 3.5486135 2.10865265 4.5764525 1.625 8.6875 C1.51414062 9.68136719 1.40328125 10.67523438 1.2890625 11.69921875 C1.19367187 12.45847656 1.09828125 13.21773438 1 14 C-0.32 13.34 -1.64 12.68 -3 12 C-2.88648483 10.18674449 -2.75887039 8.37436643 -2.625 6.5625 C-2.55539062 5.55316406 -2.48578125 4.54382813 -2.4140625 3.50390625 C-2.27742187 2.67761719 -2.14078125 1.85132813 -2 1 C-1.34 0.67 -0.68 0.34 0 0 Z " fill="#6E5243" transform="translate(543,325)"/>
<path d="M0 0 C0.33 0 0.66 0 1 0 C1.07347656 1.26457031 1.07347656 1.26457031 1.1484375 2.5546875 C1.22320313 3.65039062 1.29796875 4.74609375 1.375 5.875 C1.44460938 6.96554687 1.51421875 8.05609375 1.5859375 9.1796875 C1.73253491 12.13046474 1.73253491 12.13046474 4 14 C4.67784992 16.33010909 5.34416793 18.66359824 6 21 C6.66 21.99 7.32 22.98 8 24 C3.79276448 22.25360035 2.66990852 20.2383445 0.8203125 16.21875 C-1.18914147 10.78365546 -1.27427022 5.6634232 0 0 Z " fill="#6C7174" transform="translate(573,585)"/>
<path d="M0 0 C5.57232741 1.15289533 9.57999608 2.35349677 14 6 C14 6.99 14 7.98 14 9 C8.40440609 7.60110152 4.29704147 4.74082545 0 1 C0 0.67 0 0.34 0 0 Z " fill="#6B5E55" transform="translate(570,540)"/>
<path d="M0 0 C-6.65989724 3.60744434 -13.62173754 5.54825854 -21 7 C-15.4418307 0.97022846 -7.8344958 -0.18219758 0 0 Z " fill="#A97347" transform="translate(690,485)"/>
<path d="M0 0 C0.74958984 0.00451172 1.49917969 0.00902344 2.27148438 0.01367188 C4.11852383 0.02543646 5.96552213 0.04337135 7.8125 0.0625 C7.8125 0.3925 7.8125 0.7225 7.8125 1.0625 C6.42224609 1.26166016 6.42224609 1.26166016 5.00390625 1.46484375 C3.20759766 1.72974609 3.20759766 1.72974609 1.375 2 C0.18003906 2.17402344 -1.01492188 2.34804687 -2.24609375 2.52734375 C-5.06705676 2.75235213 -5.06705676 2.75235213 -6.1875 4.0625 C-7.85367115 4.10313832 -9.52138095 4.105221 -11.1875 4.0625 C-11.1875 3.0725 -11.1875 2.0825 -11.1875 1.0625 C-7.42449626 -0.19183458 -3.91539091 -0.04445422 0 0 Z " fill="#F5C768" transform="translate(638.1875,247.9375)"/>
<path d="M0 0 C1 2 1 2 0.22265625 4.8203125 C-0.16019531 5.91085937 -0.54304687 7.00140625 -0.9375 8.125 C-1.31777344 9.22070312 -1.69804688 10.31640625 -2.08984375 11.4453125 C-2.39019531 12.28835938 -2.69054687 13.13140625 -3 14 C-5 11 -5 11 -4.75 8.0625 C-4.09309657 5.38014434 -3.46413019 3.32538325 -2 1 C-1.34 0.67 -0.68 0.34 0 0 Z " fill="#6F5C54" transform="translate(906,475)"/>
<path d="M0 0 C0.33 0 0.66 0 1 0 C0.98839844 0.84304688 0.97679687 1.68609375 0.96484375 2.5546875 C0.95582031 3.65039062 0.94679688 4.74609375 0.9375 5.875 C0.92589844 6.96554687 0.91429687 8.05609375 0.90234375 9.1796875 C0.80255697 11.95177546 0.80255697 11.95177546 2 14 C0.53384702 17.77010767 -1.13404221 21.41161963 -3 25 C-3.18208839 19.34767292 -2.49420813 14.12021301 -1.5 8.5625 C-1.35691406 7.73556641 -1.21382812 6.90863281 -1.06640625 6.05664062 C-0.71615337 4.03684899 -0.35880704 2.01828958 0 0 Z " fill="#78716D" transform="translate(530,397)"/>
<path d="M0 0 C1.65 0.33 3.3 0.66 5 1 C2.69281189 5.28477792 0.67033927 8.72291137 -3 12 C-3.33 11.01 -3.66 10.02 -4 9 C-3.01439389 7.65599167 -2.01241685 6.32392972 -1 5 C-0.28566879 2.35065178 -0.28566879 2.35065178 0 0 Z " fill="#F5C96A" transform="translate(847,480)"/>
<path d="M0 0 C0.66 0.99 1.32 1.98 2 3 C1.2884375 4.051875 1.2884375 4.051875 0.5625 5.125 C-1.08739857 8.16081337 -1.60368464 10.59168786 -2 14 C-2.99 13.34 -3.98 12.68 -5 12 C-4.42365861 7.24518354 -2.44931479 4.02951788 0 0 Z " fill="#F5C463" transform="translate(602,269)"/>
<path d="M0 0 C0.80179688 0.00451172 1.60359375 0.00902344 2.4296875 0.01367188 C4.41149006 0.02546832 6.39325433 0.04340395 8.375 0.0625 C8.045 1.0525 7.715 2.0425 7.375 3.0625 C6.859375 2.8975 6.34375 2.7325 5.8125 2.5625 C0.5931784 1.49186993 -4.44017458 2.05082675 -9.625 3.0625 C-9.955 2.4025 -10.285 1.7425 -10.625 1.0625 C-7.31505287 -0.59247356 -3.63377 -0.03834335 0 0 Z " fill="#674030" transform="translate(714.625,100.9375)"/>
<path d="M0 0 C-2.99480287 2.99480287 -5.24499196 2.95881774 -9.4375 3.1875 C-12.8155449 3.00970816 -14.98647087 2.46110503 -18 1 C-15.25252914 0.08417638 -12.80278294 -0.04221411 -9.9375 0 C0 0 0 0 0 0 Z " fill="#FAEEB0" transform="translate(638,308)"/>
<path d="M0 0 C2.49560036 2.24460607 3.8705484 4.38520597 5.25 7.4375 C5.60578125 8.19933594 5.9615625 8.96117187 6.328125 9.74609375 C7.08338373 12.27972334 6.87351072 13.54185126 6 16 C3 10.375 3 10.375 3 7 C2.34 7 1.68 7 1 7 C-0.0625 4.625 -0.0625 4.625 -1 2 C-0.67 1.34 -0.34 0.68 0 0 Z " fill="#736661" transform="translate(800,166)"/>
<path d="M0 0 C3.62013742 5.43020613 3.54124171 10.75254971 2.5 17 C2.335 17.66 2.17 18.32 2 19 C1.67 19 1.34 19 1 19 C0.93941406 18.01257813 0.87882813 17.02515625 0.81640625 16.0078125 C0.73261719 14.72648438 0.64882813 13.44515625 0.5625 12.125 C0.48128906 10.84882813 0.40007813 9.57265625 0.31640625 8.2578125 C0.20793973 5.11699848 0.20793973 5.11699848 -1 3 C-0.67 2.01 -0.34 1.02 0 0 Z " fill="#6D574F" transform="translate(752,124)"/>
<path d="M0 0 C0.33 0 0.66 0 1 0 C2.25841946 6.74153283 3.26404456 13.13484138 3 20 C2.67 20 2.34 20 2 20 C1.814375 18.6078125 1.814375 18.6078125 1.625 17.1875 C1.18466918 13.86074765 1.18466918 13.86074765 -1 11 C-0.9765625 8.30078125 -0.9765625 8.30078125 -0.625 5.3125 C-0.51414062 4.31863281 -0.40328125 3.32476562 -0.2890625 2.30078125 C-0.19367187 1.54152344 -0.09828125 0.78226562 0 0 Z " fill="#766C68" transform="translate(884,278)"/>
<path d="M0 0 C0.97792207 3.18565522 1.04657813 5.81321089 0.75 9.125 C0.68296875 9.99382812 0.6159375 10.86265625 0.546875 11.7578125 C0 14 0 14 -3 16 C-2.52013969 10.43109483 -1.70084819 5.32932432 0 0 Z " fill="#6E635D" transform="translate(551,266)"/>
<path d="M0 0 C1 3 1 3 0 6 C0.66 6.33 1.32 6.66 2 7 C2.33 6.34 2.66 5.68 3 5 C3 5.99 3 6.98 3 8 C3.99 8.33 4.98 8.66 6 9 C5 10 5 10 2.5625 10.1875 C0 10 0 10 -2 8 C-2.38286803 4.26703674 -2.14915785 3.22373677 0 0 Z " fill="#D78842" transform="translate(633,466)"/>
<path d="M0 0 C0.33 0 0.66 0 1 0 C1.25 6.625 1.25 6.625 -1 10 C-1.66613335 12.27538323 -1.66613335 12.27538323 -2.125 14.6875 C-2.29257812 15.49574219 -2.46015625 16.30398438 -2.6328125 17.13671875 C-2.75398437 17.75160156 -2.87515625 18.36648438 -3 19 C-5.00620099 12.83911328 -2.66076436 5.70163792 0 0 Z " fill="#6F6057" transform="translate(535,375)"/>
<path d="M0 0 C0.33 0 0.66 0 1 0 C1.27599507 1.76696843 1.51996915 3.53896215 1.75 5.3125 C1.88921875 6.29863281 2.0284375 7.28476562 2.171875 8.30078125 C2 11 2 11 0.015625 12.85546875 C-0.64953125 13.23316406 -1.3146875 13.61085938 -2 14 C-2.21192221 8.80790596 -1.5912689 4.873261 0 0 Z " fill="#EFC364" transform="translate(849,358)"/>
<path d="M0 0 C1.08203125 1.82421875 1.08203125 1.82421875 2 4 C1.05439935 6.0262871 0.04622875 8.02379014 -1 10 C-1.7136724 13.73771834 -1.7136724 13.73771834 -2 17 C-2.33 17 -2.66 17 -3 17 C-3.34548714 10.66606918 -2.29342747 5.89738492 0 0 Z " fill="#6E5A53" transform="translate(679,123)"/>
<path d="M0 0 C0.99 0 1.98 0 3 0 C3.33 1.65 3.66 3.3 4 5 C4.33 5 4.66 5 5 5 C5 7.64 5 10.28 5 13 C2.2946129 8.94191935 0 4.95110601 0 0 Z " fill="#6F6C69" transform="translate(530,485)"/>
<path d="M0 0 C2.58926331 2.58926331 2.37398043 4.02705279 2.625 7.625 C2.69976563 8.62789063 2.77453125 9.63078125 2.8515625 10.6640625 C2.90054688 11.43492187 2.94953125 12.20578125 3 13 C2.67 12.34 2.34 11.68 2 11 C1.34 11 0.68 11 0 11 C-1.28571429 3.57142857 -1.28571429 3.57142857 0 0 Z " fill="#705E5A" transform="translate(897,364)"/>
<path d="M0 0 C2.31 0.66 4.62 1.32 7 2 C6.67 3.32 6.34 4.64 6 6 C4.02 6 2.04 6 0 6 C0.66 4.68 1.32 3.36 2 2 C1.01 1.67 0.02 1.34 -1 1 C-0.67 0.67 -0.34 0.34 0 0 Z " fill="#F9CD6E" transform="translate(806,250)"/>
<path d="M0 0 C5.57142857 5.14285714 5.57142857 5.14285714 6 9 C7.32 9 8.64 9 10 9 C10.33 9.99 10.66 10.98 11 12 C5.78467688 10.90842074 3.77358584 8.96279952 0.8828125 4.75390625 C0 3 0 3 0 0 Z " fill="#73584C" transform="translate(577,601)"/>
<path d="M0 0 C0.66 0.33 1.32 0.66 2 1 C-1.33333333 4.33333333 -4.66666667 7.66666667 -8 11 C-8 6.67750434 -5.85084926 5.11604454 -3 2 C-2.01 1.34 -1.02 0.68 0 0 Z " fill="#6F5143" transform="translate(648,150)"/>
<path d="M0 0 C1.41702513 0.14230808 2.8336096 0.28900746 4.25 0.4375 C5.43335938 0.55931641 5.43335938 0.55931641 6.640625 0.68359375 C8.82364639 0.97634993 10.8773182 1.42064419 13 2 C12.34 2 11.68 2 11 2 C11 2.66 11 3.32 11 4 C4.6 4.49230769 4.6 4.49230769 1.5625 2 C1.046875 1.34 0.53125 0.68 0 0 Z " fill="#F9EBA9" transform="translate(609,334)"/>
<path d="M0 0 C-0.98093954 2.45234885 -1.68703828 3.7809268 -3.875 5.3125 C-6.37345514 6.12082372 -7.52928976 5.71847013 -10 5 C-8.71186658 4.16121545 -7.41936744 3.32913217 -6.125 2.5 C-5.40570312 2.0359375 -4.68640625 1.571875 -3.9453125 1.09375 C-2 0 -2 0 0 0 Z " fill="#6A605C" transform="translate(603,204)"/>
<path d="M0 0 C0.66 1.32 1.32 2.64 2 4 C-3.75 8 -3.75 8 -6 8 C-5.75 6.125 -5.75 6.125 -5 4 C-3 2.875 -3 2.875 -1 2 C-0.67 1.34 -0.34 0.68 0 0 Z " fill="#6A4637" transform="translate(686,115)"/>
<path d="M0 0 C0.33 0.66 0.66 1.32 1 2 C-2.09677419 8.42293907 -2.09677419 8.42293907 -5.25 10.4375 C-6.11625 10.7159375 -6.11625 10.7159375 -7 11 C-5.5140084 6.40693504 -3.14985318 3.56430755 0 0 Z " fill="#FBEBA0" transform="translate(626,450)"/>
<path d="M0 0 C0.66 0.33 1.32 0.66 2 1 C-0.31 3.64 -2.62 6.28 -5 9 C-5.99 8.67 -6.98 8.34 -8 8 C-5.36 5.36 -2.72 2.72 0 0 Z " fill="#DD8C43" transform="translate(728,292)"/>
<path d="M0 0 C0.33 0 0.66 0 1 0 C1.84681133 5.08086796 2.09038099 9.84828377 2 15 C1.01 14.67 0.02 14.34 -1 14 C-0.67 9.38 -0.34 4.76 0 0 Z " fill="#7B6962" transform="translate(591,553)"/>
<path d="M0 0 C1.0467425 3.40191313 1 6.45757467 1 10 C1.30163134 12.33764285 1.62761282 14.67258011 2 17 C-0.72056375 13.91430796 -1.37356749 12.03376231 -1.25 7.9375 C-1.23453125 7.08027344 -1.2190625 6.22304688 -1.203125 5.33984375 C-1 3 -1 3 0 0 Z " fill="#F9EB9D" transform="translate(617,464)"/>
<path d="M0 0 C4.71974522 2.29936306 4.71974522 2.29936306 6 5.5 C6 6.325 6 7.15 6 8 C5.01 8.99 4.02 9.98 3 11 C2.67 8.03 2.34 5.06 2 2 C1.34 2 0.68 2 0 2 C0 1.34 0 0.68 0 0 Z " fill="#D48C4C" transform="translate(771,371)"/>
<path d="M0 0 C0.66 0.33 1.32 0.66 2 1 C-0.97 3.64 -3.94 6.28 -7 9 C-7.99 8.67 -8.98 8.34 -10 8 C-8.06857324 5.10285986 -7.34343509 4.41593426 -4.4375 2.875 C-1.25453754 1.34859298 -1.25453754 1.34859298 0 0 Z " fill="#FAF1A8" transform="translate(720,280)"/>
<path d="M0 0 C2.64 1.98 5.28 3.96 8 6 C5 7 5 7 2.875 6.375 C1 5 1 5 0.25 2.375 C0.1675 1.59125 0.085 0.8075 0 0 Z " fill="#79726C" transform="translate(847,214)"/>
<path d="M0 0 C3.77545388 1.09068668 6.47043472 1.9083091 9 5 C7.375 5.75 7.375 5.75 5 6 C1.75 4.0625 1.75 4.0625 -1 2 C-0.67 1.34 -0.34 0.68 0 0 Z " fill="#725E55" transform="translate(731,103)"/>
<path d="M0 0 C5.75 1.875 5.75 1.875 8 3 C8 3.99 8 4.98 8 6 C7.236875 5.690625 6.47375 5.38125 5.6875 5.0625 C3.81210323 4.32106407 1.91315348 3.63771783 0 3 C0 2.01 0 1.02 0 0 Z " fill="#F4D378" transform="translate(757,485)"/>
<path d="M0 0 C1.9375 0.3125 1.9375 0.3125 4 1 C5 4 5 4 4.0625 6.1875 C3.5365625 7.0846875 3.5365625 7.0846875 3 8 C2.34 8 1.68 8 1 8 C0.67 5.36 0.34 2.72 0 0 Z " fill="#755848" transform="translate(740,109)"/>
<path d="M0 0 C-1.25125384 3.75376152 -2.5652404 4.24073289 -6 6 C-6.66 6 -7.32 6 -8 6 C-8 5.01 -8 4.02 -8 3 C-2.25 0 -2.25 0 0 0 Z " fill="#6C5F5B" transform="translate(860,542)"/>
<path d="M0 0 C0.66 0 1.32 0 2 0 C0.68775452 3.93673644 -0.91910327 6.22719294 -4 9 C-4.33 8.01 -4.66 7.02 -5 6 C-2.6875 2.8125 -2.6875 2.8125 0 0 Z " fill="#74655C" transform="translate(888,512)"/>
<path d="M0 0 C0.99 0.66 1.98 1.32 3 2 C1.92598892 4.91517292 1.22189824 6.77810176 -1 9 C-1.80967438 6.08517222 -2.21845993 4.53886783 -1.0625 1.6875 C-0.711875 1.130625 -0.36125 0.57375 0 0 Z " fill="#72625A" transform="translate(893,501)"/>
<path d="M0 0 C0.66 0.33 1.32 0.66 2 1 C-1 4 -4 7 -7 10 C-7.66 9.67 -8.32 9.34 -9 9 C-6.03 6.03 -3.06 3.06 0 0 Z " fill="#9C613C" transform="translate(664,494)"/>
<path d="M0 0 C0.66 0.66 1.32 1.32 2 2 C1.34 2.928125 0.68 3.85625 0 4.8125 C-2.26574554 7.79636556 -2.26574554 7.79636556 -2 11 C-2.99 11 -3.98 11 -5 11 C-3.77472971 6.94718288 -2.30119506 3.55639236 0 0 Z " fill="#716159" transform="translate(562,240)"/>
<path d="M0 0 C3.465 1.98 3.465 1.98 7 4 C7 4.99 7 5.98 7 7 C6.01 6.34 5.02 5.68 4 5 C2.34416775 4.30686092 0.67889021 3.63525576 -1 3 C-0.67 2.01 -0.34 1.02 0 0 Z " fill="#70665F" transform="translate(838,208)"/>
<path d="M0 0 C0.66 0.33 1.32 0.66 2 1 C1.360625 1.598125 0.72125 2.19625 0.0625 2.8125 C-2.20310389 4.90810337 -2.20310389 4.90810337 -3 8 C-4.32 8 -5.64 8 -7 8 C-5.50902342 4.2047869 -3.24299151 2.38957269 0 0 Z " fill="#6C6460" transform="translate(642,154)"/>
<path d="M0 0 C2.5 2.3125 2.5 2.3125 5 5 C5 5.99 5 6.98 5 8 C3.0625 7.375 3.0625 7.375 1 6 C0.25 2.875 0.25 2.875 0 0 Z " fill="#716C6D" transform="translate(794,158)"/>
<path d="M0 0 C0 0.66 0 1.32 0 2 C-1.53125 3.2890625 -1.53125 3.2890625 -3.5 4.625 C-4.1496875 5.07101563 -4.799375 5.51703125 -5.46875 5.9765625 C-5.9740625 6.31429687 -6.479375 6.65203125 -7 7 C-7 5.68 -7 4.36 -7 3 C-2.92857143 0 -2.92857143 0 0 0 Z " fill="#72564C" transform="translate(699,104)"/>
<path d="M0 0 C0.66 0.33 1.32 0.66 2 1 C1.67 3.64 1.34 6.28 1 9 C0.34 9 -0.32 9 -1 9 C-1.09765625 2.84765625 -1.09765625 2.84765625 -1 1 C-0.67 0.67 -0.34 0.34 0 0 Z " fill="#EBAD60" transform="translate(572,365)"/>
<path d="M0 0 C-0.99 1.485 -0.99 1.485 -2 3 C-3.9453125 3.29296875 -3.9453125 3.29296875 -6.125 3.1875 C-7.40375 3.125625 -8.6825 3.06375 -10 3 C-8.0130571 -0.97388579 -3.91761109 -0.08705802 0 0 Z " fill="#E59F6E" transform="translate(636,205)"/>
<path d="M0 0 C0.66 0 1.32 0 2 0 C3.35439668 2.70879335 3.06501451 5.00933268 3 8 C2.01 7.67 1.02 7.34 0 7 C0 4.69 0 2.38 0 0 Z " fill="#6F5650" transform="translate(903,409)"/>
<path d="M0 0 C2.29633824 3.44450737 2.54016485 5.93812283 3 10 C2.67 9.34 2.34 8.68 2 8 C1.34 8 0.68 8 0 8 C-1.125 2.25 -1.125 2.25 0 0 Z " fill="#71635F" transform="translate(878,255)"/>
<path d="M0 0 C0.66 0.33 1.32 0.66 2 1 C0.7934375 1.4021875 0.7934375 1.4021875 -0.4375 1.8125 C-1.283125 2.204375 -2.12875 2.59625 -3 3 C-3.33 3.99 -3.66 4.98 -4 6 C-5.65 6 -7.3 6 -9 6 C-3.30379747 1.25316456 -3.30379747 1.25316456 0 0 Z " fill="#F2C462" transform="translate(623,251)"/>
<path d="M0 0 C0.66 0 1.32 0 2 0 C1.46930939 3.82097239 0.50298434 6.06171403 -2 9 C-2.33 7.68 -2.66 6.36 -3 5 C-2.01 4.67 -1.02 4.34 0 4 C-0.33 3.01 -0.66 2.02 -1 1 C-0.67 0.67 -0.34 0.34 0 0 Z " fill="#6F6A65" transform="translate(898,494)"/>
<path d="M0 0 C2.97 0.33 5.94 0.66 9 1 C9 1.66 9 2.32 9 3 C6.03 2.67 3.06 2.34 0 2 C0 1.34 0 0.68 0 0 Z " fill="#9A633C" transform="translate(741,484)"/>
<path d="M0 0 C0.99 0.99 1.98 1.98 3 3 C2.01 5.97 1.02 8.94 0 12 C-1.03159626 8.90521121 -0.97482862 7.47368607 -0.5625 4.3125 C-0.46066406 3.50425781 -0.35882812 2.69601562 -0.25390625 1.86328125 C-0.17011719 1.24839844 -0.08632813 0.63351562 0 0 Z " fill="#EEBE5F" transform="translate(591,309)"/>
<path d="M0 0 C0.66 0.99 1.32 1.98 2 3 C0.98819642 6.77126791 0.32378142 7.78414572 -3 10 C-2.01 6.7 -1.02 3.4 0 0 Z " fill="#675F57" transform="translate(556,251)"/>
<path d="M0 0 C0 3.38023517 -0.87455622 5.83468937 -2 9 C-2.33 9 -2.66 9 -3 9 C-3 6.36 -3 3.72 -3 1 C-2.01 0.67 -1.02 0.34 0 0 Z " fill="#6F534A" transform="translate(627,181)"/>
<path d="M0 0 C2 3 2 3 2 5 C2.99 5 3.98 5 5 5 C4.67 6.32 4.34 7.64 4 9 C-0.00390625 4.60546875 -0.00390625 4.60546875 -1 3 C-0.67 2.01 -0.34 1.02 0 0 Z " fill="#6C7779" transform="translate(545,512)"/>
<path d="M0 0 C1.32 0 2.64 0 4 0 C4 1.98 4 3.96 4 6 C2.68 5.34 1.36 4.68 0 4 C0 2.68 0 1.36 0 0 Z " fill="#FACC6A" transform="translate(815,504)"/>
<path d="M0 0 C-3.50538557 1.96301592 -7.13351728 2.95902388 -11 4 C-7.95841042 -0.56238437 -5.1474794 -0.11438843 0 0 Z " fill="#9A6039" transform="translate(690,485)"/>
<path d="M0 0 C0.66 0.33 1.32 0.66 2 1 C0.54744301 4.82946843 -1.42895561 6.12050295 -5 8 C-3.8141763 4.62496331 -2.72426311 2.35277269 0 0 Z " fill="#736D6A" transform="translate(580,574)"/>
<path d="M0 0 C0 0.99 0 1.98 0 3 C-2 5 -2 5 -4.625 5.125 C-5.40875 5.08375 -6.1925 5.0425 -7 5 C-2.25 1.125 -2.25 1.125 0 0 Z " fill="#67696A" transform="translate(589,569)"/>
<path d="M0 0 C1.9375 0.3125 1.9375 0.3125 4 1 C4.33 1.99 4.66 2.98 5 4 C4.01 5.485 4.01 5.485 3 7 C0 2.25 0 2.25 0 0 Z " fill="#6E6B68" transform="translate(535,498)"/>
<path d="M0 0 C0.33 0.99 0.66 1.98 1 3 C-0.4375 5.1875 -0.4375 5.1875 -2 7 C-2.99 6.67 -3.98 6.34 -5 6 C-3.35 4.02 -1.7 2.04 0 0 Z " fill="#F0E3A0" transform="translate(649,461)"/>
<path d="M0 0 C0.33 0.99 0.66 1.98 1 3 C-0.32 4.32 -1.64 5.64 -3 7 C-2.38722388 4.03824877 -1.74627478 2.61941217 0 0 Z M-7 9 C-5 10 -5 10 -5 10 Z " fill="#FCEFA3" transform="translate(806,364)"/>
<path d="M0 0 C2.62187494 1.04874998 3.79371361 1.64931313 5.25 4.125 C5.4975 4.74375 5.745 5.3625 6 6 C4.02 5.01 2.04 4.02 0 3 C0 2.01 0 1.02 0 0 Z " fill="#DB9669" transform="translate(847,228)"/>
</svg>
