<svg width="284" height="157" viewBox="0 0 284 157" fill="none" xmlns="http://www.w3.org/2000/svg">
<path opacity="0.3" d="M6.87819 60.9405C6.57125 56.6454 8.96192 57.5741 11.0243 58.4726C15.6571 60.4908 19.823 63.1998 22.9592 67.2844C24.0978 68.7673 25.3258 70.2192 27.5181 69.5422C29.9438 68.7931 29.4569 66.6861 29.4375 64.9398C29.3814 59.8822 29.0002 54.8056 34.7673 52.0777C35.4994 51.7314 35.7856 50.055 35.9415 48.9474C36.504 44.9478 37.7929 41.5672 41.9127 39.857C44.6286 38.7295 44.1259 35.9733 44.394 33.7617C45.2297 26.8653 46.6095 25.097 53.2964 23.7969C55.4496 23.3782 56.531 22.4915 56.854 20.372C57.7351 14.5912 61.2579 11.5651 66.9853 11.1995C69.373 11.0471 70.4908 9.93668 71.1869 7.758C72.5414 3.51822 75.6968 1.40302 80.0057 0.651094C84.8268 -0.190276 89.6196 -0.26251 94.4094 0.707369C100.202 1.88031 103.046 5.13864 103.159 11.1089C103.307 18.9384 103.219 26.7722 103.268 34.6039C103.276 35.9266 102.928 37.7927 103.641 38.4857C110.284 44.9419 107.815 53.1486 107.981 60.7293C108.25 73.0069 108.04 73.0131 120.031 70.6941C129.812 68.8027 138.674 64.8077 146.831 59.2839C146.787 56.8391 144.885 56.0386 143.65 54.8221C138.65 49.8977 133.711 44.9341 130.718 38.4419C127.261 30.9445 128.273 23.7502 133.374 19.1052C138.823 14.1433 145.241 13.5912 152.728 17.9036C155.24 19.3498 156.986 19.3072 159.477 17.8495C166.431 13.7798 172.205 14.1756 177.606 18.5628C182.079 22.1958 183.672 29.2552 181.592 35.9964C179.551 42.6084 174.877 47.3915 170.401 52.3309C168.533 54.3916 165.968 55.8461 164.548 59.088C175.892 66.3168 188.005 70.7279 201.525 70.9393C204.407 70.9843 204.557 68.9508 204.557 66.8198C204.558 60.6541 204.628 54.4879 204.56 48.3231C204.525 45.1556 205.102 42.3272 207.914 40.4415C209.921 39.0958 209.761 37.0663 209.759 35.0671C209.753 27.7349 209.666 20.4019 209.752 13.0709C209.847 4.99051 212.817 1.75385 220.863 0.477327C225.535 -0.264006 230.159 -0.157255 234.754 0.939211C238.241 1.77121 240.966 3.70145 241.811 7.26929C242.483 10.1051 244.03 10.9314 246.719 11.0831C252.175 11.3908 255.846 14.174 256.802 19.7184C257.249 22.3109 258.581 23.2511 261.011 23.7841C266.972 25.0915 269.092 27.7249 269.113 33.9116C269.125 37.1407 269.471 39.8853 272.917 41.2102C273.353 41.3776 273.936 41.802 274.005 42.1877C275.652 51.3033 285.334 57.6006 282.975 68.1888C282.293 71.2533 281.728 74.0921 278.654 75.5518C276.997 76.3385 276.601 77.8268 275.748 79.2482C272.215 85.1359 268.517 90.7512 267.431 97.874C267.007 100.652 263.473 102.232 260.238 102.389C258.132 102.492 256.81 103.282 256.327 105.443C255.165 110.637 251.425 112.813 246.539 113.142C243.697 113.334 242.146 114.308 242.148 117.27C242.149 117.758 242.012 118.263 241.858 118.734C239.787 125.06 231.862 127.695 219.957 126.026C213.264 125.088 209.854 121.456 209.736 114.661C209.595 106.498 209.754 98.3305 209.69 90.1657C209.647 84.5374 205.844 80.7521 200.217 80.3398C185.633 79.2713 172.167 74.6924 159.918 66.7946C156.9 64.849 154.803 64.9301 151.936 66.8599C139.684 75.1076 126.163 79.9154 111.419 81.2686C106.241 81.7438 103.261 85.1729 103.235 90.514C103.195 98.679 103.284 106.845 103.215 115.01C103.158 121.817 100.731 124.737 94.0196 125.873C88.8805 126.744 83.7032 126.52 78.637 125.268C74.4106 124.224 71.3313 121.638 70.8074 117.192C70.4421 114.091 68.8977 113.575 66.2512 113.257C61.7752 112.719 58.2985 110.498 57.6256 105.625C57.2518 102.919 55.6349 102.682 53.4639 102.434C47.4029 101.742 44.5731 98.713 44.5526 92.5776C44.5421 89.4282 44.0979 87.0536 40.6621 86.0363C39.0101 85.5472 38.0429 84.0499 37.2386 82.5502C34.7351 77.8824 34.734 77.883 29.1655 78.999C28.6266 82.6212 29.2212 86.4588 28.0877 90.1463C26.4867 95.3549 23.5599 99.4095 18.6867 101.886C12.9777 104.788 6.2715 103.633 2.68209 99.2745C-0.989756 94.8157 -0.871775 87.7905 2.91488 82.5333C5.99689 78.2545 10.4597 75.6699 15.0512 72.9769C12.5748 68.6653 8.75426 65.6677 6.87819 60.9405ZM94.5566 97.6164C94.55 70.3087 94.554 43.001 94.5138 15.6934C94.511 13.7622 95.2891 11.1332 93.2375 10.1696C89.5233 8.42508 85.3291 8.73184 81.52 9.82367C78.491 10.6919 79.2186 13.8922 79.2162 16.3137C79.1864 46.4519 79.1959 76.5901 79.1875 106.728C79.1845 117.412 79.5713 117.716 90.0705 117.091C93.1397 116.909 94.6625 115.857 94.5722 112.601C94.4431 107.943 94.5496 103.278 94.5566 97.6164ZM219.017 18.7146C219.026 25.3774 219.05 32.0403 219.041 38.7031C219.008 62.689 218.95 86.6749 218.947 110.661C218.947 112.593 218.15 115.287 220.149 116.204C223.7 117.833 227.735 117.437 231.402 116.44C234.626 115.564 233.635 112.34 233.646 109.992C233.725 93.0022 233.708 76.0119 233.712 59.0218C233.716 44.3637 233.727 29.7055 233.682 15.0475C233.676 12.9706 234.166 10.6413 231.444 9.53079C223.923 6.46161 218.96 9.71591 219.017 18.7146ZM165.455 44.2353C168.539 40.9344 171.502 37.5258 172.969 33.1577C173.982 30.1445 174.168 27.0145 170.997 25.1785C167.906 23.389 164.898 24.2074 162.316 26.616C160.184 28.6051 159.579 32.5925 156.127 32.6602C152.595 32.7294 152.145 28.5987 149.974 26.6584C147.016 24.0139 143.594 23.196 140.32 25.0532C136.728 27.0915 137.527 30.8021 138.655 34.0204C140.176 38.3609 143.184 41.8047 146.417 44.9281C156.484 54.6529 154.239 55.488 165.455 44.2353ZM242.879 27.7586C242.589 51.5316 243.296 75.3124 242.317 99.0815C242.234 101.086 241.613 103.863 244.97 103.936C247.869 103.998 247.816 101.581 247.821 99.6113C247.879 74.5018 247.898 49.3921 247.891 24.2824C247.89 22.6353 247.873 20.6584 245.599 20.4976C242.865 20.3043 243.046 22.5148 242.906 24.3172C242.842 25.1442 242.879 25.9791 242.879 27.7586ZM65.9543 28.7383C65.9901 51.7213 66.0231 74.7043 66.0688 97.6874C66.0718 99.1836 66.1007 100.687 66.2507 102.174C66.3831 103.486 67.2304 104.349 68.551 104.364C70.0748 104.381 70.394 103.193 70.454 101.948C70.5022 100.951 70.5018 99.9507 70.5017 98.9517C70.4992 75.3024 70.5516 51.6528 70.4033 28.0044C70.3877 25.5158 72.141 21.0208 68.2949 20.933C64.2334 20.8402 66.6634 25.3743 65.9543 28.7383ZM260.508 69.6176C260.505 58.991 260.545 48.3641 260.455 37.7383C260.44 36.0138 261.392 33.6287 257.759 32.688C257.759 53.1073 257.759 73.1895 257.759 93.9479C258.963 93.1321 259.857 92.8502 259.926 92.4317C261.125 85.1929 260.214 77.8893 260.508 69.6176ZM56.4047 34.18C51.7713 32.6742 53.2753 36.5008 53.2619 38.209C53.1294 55.024 53.1601 71.8407 53.2313 88.6564C53.2383 90.2982 52.366 93.0321 54.9507 93.1239C57.6862 93.2209 56.806 90.4493 56.8041 88.8349C56.7838 70.8545 56.6713 52.8742 56.4047 34.18ZM11.0087 94.0278C17.7251 93.6821 20.8225 89.1457 18.6656 82.8136C11.4005 84.0981 8.01003 88.572 11.0087 94.0278Z" fill="black"/>
<path d="M63.088 150.582L68.002 139.548H69.55L64.744 150.582H63.088ZM64.924 147.054L61.342 139.548H63.232L66.238 146.208L64.924 147.054ZM71.196 143.202C71.196 142.458 71.37 141.786 71.718 141.186C72.078 140.586 72.57 140.112 73.194 139.764C73.818 139.416 74.526 139.242 75.318 139.242C76.134 139.242 76.848 139.416 77.46 139.764C78.072 140.112 78.546 140.586 78.882 141.186C79.218 141.786 79.386 142.458 79.386 143.202C79.386 143.946 79.218 144.624 78.882 145.236C78.546 145.836 78.066 146.31 77.442 146.658C76.83 147.006 76.116 147.18 75.3 147.18C74.508 147.18 73.8 147.018 73.176 146.694C72.564 146.358 72.078 145.896 71.718 145.308C71.37 144.708 71.196 144.006 71.196 143.202ZM72.87 143.22C72.87 143.7 72.978 144.138 73.194 144.534C73.41 144.918 73.698 145.224 74.058 145.452C74.43 145.68 74.838 145.794 75.282 145.794C75.75 145.794 76.164 145.68 76.524 145.452C76.896 145.224 77.184 144.918 77.388 144.534C77.592 144.138 77.694 143.7 77.694 143.22C77.694 142.74 77.592 142.308 77.388 141.924C77.184 141.528 76.896 141.216 76.524 140.988C76.164 140.748 75.75 140.628 75.282 140.628C74.826 140.628 74.412 140.748 74.04 140.988C73.68 141.228 73.392 141.546 73.176 141.942C72.972 142.326 72.87 142.752 72.87 143.22ZM84.7306 147.288C84.0586 147.288 83.5006 147.084 83.0566 146.676C82.6246 146.256 82.3966 145.716 82.3726 145.056V139.548H84.0466V144.462C84.0706 144.87 84.1846 145.2 84.3886 145.452C84.6046 145.704 84.9406 145.836 85.3966 145.848C85.8166 145.848 86.1886 145.728 86.5126 145.488C86.8486 145.236 87.1186 144.9 87.3226 144.48C87.5266 144.048 87.6286 143.562 87.6286 143.022V139.548H89.3026V147H87.7726L87.6286 145.164L87.7186 145.488C87.5746 145.836 87.3526 146.148 87.0526 146.424C86.7646 146.688 86.4226 146.898 86.0266 147.054C85.6306 147.21 85.1986 147.288 84.7306 147.288ZM94.4128 139.548L94.5748 141.708L94.4848 141.42C94.6768 140.964 94.9528 140.58 95.3128 140.268C95.6848 139.944 96.0688 139.698 96.4648 139.53C96.8728 139.35 97.2268 139.26 97.5268 139.26L97.4368 140.916C96.8728 140.88 96.3748 140.988 95.9428 141.24C95.5228 141.492 95.1868 141.828 94.9348 142.248C94.6948 142.668 94.5748 143.118 94.5748 143.598V147H92.9188V139.548H94.4128ZM108.316 139.548L108.46 141.366L108.388 141.078C108.628 140.526 109.018 140.088 109.558 139.764C110.098 139.428 110.722 139.26 111.43 139.26C112.138 139.26 112.714 139.47 113.158 139.89C113.614 140.298 113.848 140.832 113.86 141.492V147H112.168V142.086C112.156 141.678 112.036 141.348 111.808 141.096C111.592 140.832 111.25 140.7 110.782 140.7C110.35 140.7 109.96 140.82 109.612 141.06C109.264 141.3 108.988 141.63 108.784 142.05C108.592 142.47 108.496 142.956 108.496 143.508V147H106.822V139.548H108.316ZM116.843 143.202C116.843 142.458 117.017 141.786 117.365 141.186C117.725 140.586 118.217 140.112 118.841 139.764C119.465 139.416 120.173 139.242 120.965 139.242C121.781 139.242 122.495 139.416 123.107 139.764C123.719 140.112 124.193 140.586 124.529 141.186C124.865 141.786 125.033 142.458 125.033 143.202C125.033 143.946 124.865 144.624 124.529 145.236C124.193 145.836 123.713 146.31 123.089 146.658C122.477 147.006 121.763 147.18 120.947 147.18C120.155 147.18 119.447 147.018 118.823 146.694C118.211 146.358 117.725 145.896 117.365 145.308C117.017 144.708 116.843 144.006 116.843 143.202ZM118.517 143.22C118.517 143.7 118.625 144.138 118.841 144.534C119.057 144.918 119.345 145.224 119.705 145.452C120.077 145.68 120.485 145.794 120.929 145.794C121.397 145.794 121.811 145.68 122.171 145.452C122.543 145.224 122.831 144.918 123.035 144.534C123.239 144.138 123.341 143.7 123.341 143.22C123.341 142.74 123.239 142.308 123.035 141.924C122.831 141.528 122.543 141.216 122.171 140.988C121.811 140.748 121.397 140.628 120.929 140.628C120.473 140.628 120.059 140.748 119.687 140.988C119.327 141.228 119.039 141.546 118.823 141.942C118.619 142.326 118.517 142.752 118.517 143.22ZM128.739 136.272H130.413V139.584H132.465V140.898H130.413V147H128.739V140.898H127.371V139.584H128.739V136.272ZM138.664 147.18C137.812 147.18 137.08 147.012 136.468 146.676C135.856 146.328 135.382 145.86 135.046 145.272C134.722 144.672 134.56 143.988 134.56 143.22C134.56 142.488 134.746 141.822 135.118 141.222C135.49 140.622 135.988 140.142 136.612 139.782C137.236 139.422 137.932 139.242 138.7 139.242C139.684 139.242 140.5 139.53 141.148 140.106C141.796 140.682 142.234 141.474 142.462 142.482L136.324 144.642L135.928 143.652L140.968 141.816L140.608 142.05C140.464 141.654 140.224 141.312 139.888 141.024C139.552 140.724 139.114 140.574 138.574 140.574C138.118 140.574 137.71 140.688 137.35 140.916C136.99 141.132 136.708 141.432 136.504 141.816C136.3 142.2 136.198 142.638 136.198 143.13C136.198 143.646 136.306 144.102 136.522 144.498C136.738 144.882 137.032 145.188 137.404 145.416C137.788 145.632 138.22 145.74 138.7 145.74C139.024 145.74 139.336 145.68 139.636 145.56C139.948 145.44 140.236 145.284 140.5 145.092L141.274 146.334C140.902 146.586 140.482 146.79 140.014 146.946C139.558 147.102 139.108 147.18 138.664 147.18ZM152.415 136.272H154.089V139.584H156.141V140.898H154.089V147H152.415V140.898H151.047V139.584H152.415V136.272ZM158.236 143.202C158.236 142.458 158.41 141.786 158.758 141.186C159.118 140.586 159.61 140.112 160.234 139.764C160.858 139.416 161.566 139.242 162.358 139.242C163.174 139.242 163.888 139.416 164.5 139.764C165.112 140.112 165.586 140.586 165.922 141.186C166.258 141.786 166.426 142.458 166.426 143.202C166.426 143.946 166.258 144.624 165.922 145.236C165.586 145.836 165.106 146.31 164.482 146.658C163.87 147.006 163.156 147.18 162.34 147.18C161.548 147.18 160.84 147.018 160.216 146.694C159.604 146.358 159.118 145.896 158.758 145.308C158.41 144.708 158.236 144.006 158.236 143.202ZM159.91 143.22C159.91 143.7 160.018 144.138 160.234 144.534C160.45 144.918 160.738 145.224 161.098 145.452C161.47 145.68 161.878 145.794 162.322 145.794C162.79 145.794 163.204 145.68 163.564 145.452C163.936 145.224 164.224 144.918 164.428 144.534C164.632 144.138 164.734 143.7 164.734 143.22C164.734 142.74 164.632 142.308 164.428 141.924C164.224 141.528 163.936 141.216 163.564 140.988C163.204 140.748 162.79 140.628 162.322 140.628C161.866 140.628 161.452 140.748 161.08 140.988C160.72 141.228 160.432 141.546 160.216 141.942C160.012 142.326 159.91 142.752 159.91 143.22ZM180.364 147.18C179.68 147.18 179.074 147.03 178.546 146.73C178.03 146.43 177.616 146.052 177.304 145.596L177.502 145.074V147H175.828V133.068H177.484V141.258L177.43 140.628C177.73 140.22 178.156 139.89 178.708 139.638C179.272 139.374 179.896 139.242 180.58 139.242C181.252 139.242 181.864 139.404 182.416 139.728C182.968 140.052 183.406 140.508 183.73 141.096C184.066 141.672 184.234 142.362 184.234 143.166C184.234 144.006 184.054 144.726 183.694 145.326C183.346 145.926 182.878 146.388 182.29 146.712C181.702 147.024 181.06 147.18 180.364 147.18ZM180.022 145.758C180.502 145.758 180.934 145.644 181.318 145.416C181.702 145.188 182.002 144.882 182.218 144.498C182.434 144.102 182.542 143.652 182.542 143.148C182.542 142.668 182.428 142.236 182.2 141.852C181.984 141.456 181.684 141.144 181.3 140.916C180.928 140.688 180.502 140.574 180.022 140.574C179.614 140.574 179.236 140.652 178.888 140.808C178.54 140.964 178.246 141.18 178.006 141.456C177.766 141.72 177.598 142.032 177.502 142.392V143.886C177.598 144.246 177.76 144.57 177.988 144.858C178.216 145.134 178.504 145.356 178.852 145.524C179.2 145.68 179.59 145.758 180.022 145.758ZM190.674 147.18C189.822 147.18 189.09 147.012 188.478 146.676C187.866 146.328 187.392 145.86 187.056 145.272C186.732 144.672 186.57 143.988 186.57 143.22C186.57 142.488 186.756 141.822 187.128 141.222C187.5 140.622 187.998 140.142 188.622 139.782C189.246 139.422 189.942 139.242 190.71 139.242C191.694 139.242 192.51 139.53 193.158 140.106C193.806 140.682 194.244 141.474 194.472 142.482L188.334 144.642L187.938 143.652L192.978 141.816L192.618 142.05C192.474 141.654 192.234 141.312 191.898 141.024C191.562 140.724 191.124 140.574 190.584 140.574C190.128 140.574 189.72 140.688 189.36 140.916C189 141.132 188.718 141.432 188.514 141.816C188.31 142.2 188.208 142.638 188.208 143.13C188.208 143.646 188.316 144.102 188.532 144.498C188.748 144.882 189.042 145.188 189.414 145.416C189.798 145.632 190.23 145.74 190.71 145.74C191.034 145.74 191.346 145.68 191.646 145.56C191.958 145.44 192.246 145.284 192.51 145.092L193.284 146.334C192.912 146.586 192.492 146.79 192.024 146.946C191.568 147.102 191.118 147.18 190.674 147.18Z" fill="black"/>
<path d="M204.227 133.068H205.919L204.209 147H202.535L204.227 133.068ZM208.022 139.548H209.696L208.778 147H207.104L208.022 139.548ZM208.148 137.046C208.148 136.77 208.25 136.536 208.454 136.344C208.658 136.152 208.91 136.056 209.21 136.056C209.438 136.056 209.654 136.128 209.858 136.272C210.074 136.416 210.176 136.638 210.164 136.938C210.152 137.214 210.044 137.448 209.84 137.64C209.636 137.832 209.384 137.928 209.084 137.928C208.856 137.928 208.64 137.856 208.436 137.712C208.232 137.556 208.136 137.334 208.148 137.046ZM215.221 150.69C214.621 150.69 214.099 150.624 213.655 150.492C213.211 150.372 212.809 150.192 212.449 149.952C212.101 149.712 211.765 149.436 211.441 149.124L212.575 147.99C212.839 148.266 213.109 148.494 213.385 148.674C213.661 148.866 213.961 149.004 214.285 149.088C214.621 149.172 214.981 149.214 215.365 149.214C215.857 149.214 216.283 149.124 216.643 148.944C217.003 148.776 217.285 148.53 217.489 148.206C217.705 147.894 217.837 147.528 217.885 147.108L218.137 145.092L218.263 145.398C218.011 145.914 217.609 146.34 217.057 146.676C216.517 147 215.875 147.162 215.131 147.162C214.435 147.162 213.811 147.012 213.259 146.712C212.719 146.4 212.287 145.962 211.963 145.398C211.651 144.822 211.495 144.144 211.495 143.364C211.495 142.968 211.573 142.536 211.729 142.068C211.897 141.588 212.149 141.138 212.485 140.718C212.833 140.286 213.271 139.938 213.799 139.674C214.339 139.398 214.981 139.26 215.725 139.26C216.469 139.26 217.105 139.404 217.633 139.692C218.161 139.968 218.527 140.328 218.731 140.772L218.533 141.114L218.965 139.548H220.495L219.523 147.378C219.451 148.05 219.223 148.632 218.839 149.124C218.467 149.616 217.969 150 217.345 150.276C216.733 150.552 216.025 150.69 215.221 150.69ZM216.031 140.628C215.503 140.628 215.059 140.724 214.699 140.916C214.339 141.096 214.045 141.33 213.817 141.618C213.601 141.906 213.445 142.206 213.349 142.518C213.253 142.818 213.205 143.1 213.205 143.364C213.205 143.844 213.307 144.27 213.511 144.642C213.715 145.002 214.003 145.284 214.375 145.488C214.747 145.692 215.185 145.794 215.689 145.794C216.061 145.794 216.421 145.716 216.769 145.56C217.117 145.404 217.417 145.194 217.669 144.93C217.933 144.654 218.137 144.342 218.281 143.994L218.461 142.5C218.401 142.14 218.257 141.822 218.029 141.546C217.801 141.258 217.519 141.036 217.183 140.88C216.847 140.712 216.463 140.628 216.031 140.628ZM224.79 140.97C225.114 140.466 225.558 140.058 226.122 139.746C226.686 139.422 227.328 139.26 228.048 139.26C228.756 139.26 229.308 139.47 229.704 139.89C230.1 140.298 230.268 140.832 230.208 141.492L229.524 147H227.85L228.444 142.032C228.468 141.648 228.384 141.336 228.192 141.096C228.012 140.844 227.7 140.712 227.256 140.7C226.812 140.7 226.398 140.826 226.014 141.078C225.63 141.318 225.312 141.648 225.06 142.068C224.82 142.488 224.664 142.968 224.592 143.508L224.16 147H222.486L224.178 133.068H225.834L224.826 141.33L224.79 140.97ZM234.415 136.272H236.089L235.693 139.584H237.745L237.583 140.898H235.531L234.793 147H233.119L233.857 140.898H232.489L232.633 139.584H234.019L234.415 136.272ZM242.792 145.74C243.092 145.74 243.38 145.692 243.656 145.596C243.932 145.488 244.196 145.356 244.448 145.2L245.06 146.478C244.7 146.694 244.304 146.862 243.872 146.982C243.452 147.102 243.038 147.162 242.63 147.162C241.85 147.162 241.166 147.018 240.578 146.73C239.99 146.43 239.528 145.998 239.192 145.434C238.868 144.87 238.706 144.192 238.706 143.4C238.706 142.908 238.796 142.422 238.976 141.942C239.156 141.462 239.426 141.024 239.786 140.628C240.146 140.22 240.59 139.896 241.118 139.656C241.658 139.404 242.282 139.278 242.99 139.278C243.434 139.278 243.854 139.338 244.25 139.458C244.658 139.566 245.03 139.752 245.366 140.016C245.702 140.28 245.984 140.634 246.212 141.078C246.452 141.522 246.62 142.068 246.716 142.716L240.344 144.516L240.074 143.49L245.51 141.924L244.916 142.194C244.796 141.726 244.556 141.342 244.196 141.042C243.848 140.742 243.428 140.592 242.936 140.592C242.408 140.592 241.952 140.718 241.568 140.97C241.184 141.21 240.89 141.528 240.686 141.924C240.482 142.32 240.38 142.746 240.38 143.202C240.38 143.778 240.494 144.252 240.722 144.624C240.95 144.996 241.25 145.278 241.622 145.47C241.994 145.65 242.384 145.74 242.792 145.74ZM250.684 139.548L250.558 141.366C250.81 140.91 251.122 140.526 251.494 140.214C251.878 139.902 252.274 139.668 252.682 139.512C253.102 139.344 253.486 139.26 253.834 139.26L253.564 140.916C253 140.88 252.484 140.988 252.016 141.24C251.56 141.492 251.188 141.828 250.9 142.248C250.612 142.668 250.438 143.118 250.378 143.598L249.946 147H248.29L249.19 139.548H250.684Z" fill="#FF5B04"/>
</svg>
